<?xml version="1.0" encoding="utf-8"?>
<svg version="1.1" xmlns="http://www.w3.org/2000/svg" xmlns:xlink="http://www.w3.org/1999/xlink" x="0px" y="0px" width="128px" height="128px"
	 viewBox="0 0 128 128" enable-background="new 0 0 128 128" xml:space="preserve">
	<path fill="#242424" stroke="#191919" stroke-width="4" d="M16,2h96c7.732,0,14,6.268,14,14v96c0,7.732-6.268,14-14,14H16 c-7.732,0-14-6.268-14-14V16C2,8.268,8.268,2,16,2z"/>
	<path fill="#F5F5F5" d="M55.563,22.917L74.91,71.273H36.223L55.563,22.917z M108.892,107.642L73.516,19.075H54.912l-34.845,87.181 l-0.53,1.386h19.378l13.841-35.084h22.921l13.845,35.084H108.892z"/>
	<path fill="none" stroke="#242424" stroke-width="4" d="M16,2h96c7.732,0,14,6.268,14,14v96c0,7.732-6.268,14-14,14H16 c-7.732,0-14-6.268-14-14V16C2,8.268,8.268,2,16,2z"/>
</svg>
