<svg
  xmlns="http://www.w3.org/2000/svg"
  xmlns:xlink="http://www.w3.org/1999/xlink"
  x="0px" y="0px" 
  viewBox="0 0 64 64"
  xml:space="preserve"
>
  <symbol id="movies" width="64" height="64" viewBox="0 0 64 64">   
    <g>
      <path d="M55.931,30.139c-0.255-0.188-0.584-0.245-0.886-0.155l-11.411,3.442v-1.577c0-0.552-0.447-1-1-1h-1.191    c2.366-1.794,3.904-4.627,3.904-7.819c0-5.415-4.405-9.819-9.819-9.819c-4.04,0-7.516,2.454-9.021,5.947    c-1.505-3.494-4.981-5.947-9.021-5.947c-5.415,0-9.819,4.405-9.819,9.819c0,3.192,1.538,6.025,3.904,7.819h-0.787    c-0.552,0-1,0.448-1,1V49.79c0,0.553,0.448,1,1,1h31.851c0.553,0,1-0.447,1-1v-7.625l11.411,3.441    c0.095,0.029,0.192,0.043,0.289,0.043c0.212,0,0.422-0.067,0.597-0.197c0.254-0.188,0.403-0.486,0.403-0.803V30.941    C56.334,30.625,56.185,30.327,55.931,30.139z M35.527,15.21c4.312,0,7.819,3.508,7.819,7.819s-3.508,7.819-7.819,7.819    s-7.819-3.508-7.819-7.819S31.216,15.21,35.527,15.21z M29.612,30.849H23.4c1.348-1.022,2.429-2.375,3.106-3.947    C27.184,28.473,28.265,29.827,29.612,30.849z M9.666,23.029c0-4.312,3.508-7.819,7.819-7.819c4.312,0,7.82,3.508,7.82,7.819    s-3.508,7.819-7.82,7.819C13.174,30.849,9.666,27.341,9.666,23.029z M41.634,48.79H11.783V32.849h29.851V48.79z M54.334,43.304    l-10.7-3.227v-4.563l10.7-3.226V43.304z" fill="currentColor"/>
      <circle cx="35.527" cy="23.029" r="2.144" fill="currentColor"/>
      <circle cx="17.485" cy="23.029" r="2.144" fill="currentColor"/>
    </g>
    <rect fill="none" width="64" height="64" />    
  </symbol>

  <symbol id="videogames" width="64" height="64" viewBox="0 0 64 64">
    <g>
      <path d="M21.16,21.313c-3.38,0-6.129,2.749-6.129,6.127c0,3.379,2.749,6.129,6.129,6.129s6.129-2.75,6.129-6.129    C27.289,24.061,24.54,21.313,21.16,21.313z M21.16,31.569c-2.276,0-4.129-1.852-4.129-4.129c0-2.276,1.853-4.127,4.129-4.127    s4.129,1.852,4.129,4.127C25.289,29.717,23.437,31.569,21.16,31.569z" fill="currentColor"/>
      <path d="M49.345,17.356c-2.319-2.379-4.7-3.689-6.702-3.689c-2.86,0-4.038,0.784-5.178,1.542    c-1.127,0.749-2.191,1.457-5.464,1.457c-3.273,0-4.338-0.708-5.466-1.458c-1.14-0.757-2.317-1.541-5.178-1.541    c-2.002,0-4.382,1.31-6.701,3.689c-4.232,4.341-9.08,13.166-8.813,23.754l0.007,0.292c0.054,2.392,0.142,6.394,3.98,8.186    c1.076,0.502,2.093,0.746,3.106,0.746c2.926,0,5.173-1.997,8.019-4.525l0.989-0.875c3.859-3.386,8.129-4.615,10.057-4.615    s6.196,1.229,10.057,4.615l0.987,0.874c2.846,2.529,5.094,4.526,8.02,4.526c1.015,0,2.03-0.244,3.106-0.746    c3.837-1.791,3.927-5.793,3.981-8.184l0.007-0.294C58.426,30.522,53.577,21.697,49.345,17.356z M56.152,41.359    c-0.049,2.174-0.116,5.15-2.827,6.416c-0.806,0.376-1.545,0.559-2.261,0.559c-2.165,0-4.063-1.687-6.69-4.021l-0.998-0.883    c-4.608-4.042-9.456-5.111-11.375-5.111c-1.92,0-6.768,1.069-11.375,5.111l-0.999,0.884c-2.627,2.334-4.525,4.021-6.69,4.021    c-0.716,0-1.455-0.183-2.261-0.559c-2.712-1.266-2.778-4.243-2.826-6.417L7.843,41.06c-0.235-9.327,3.972-17.924,8.245-22.307    c1.912-1.961,3.833-3.085,5.27-3.085c2.256,0,3.057,0.533,4.071,1.207c1.263,0.84,2.695,1.792,6.572,1.792    s5.309-0.952,6.571-1.792c1.014-0.674,1.814-1.207,4.07-1.207c1.438,0,3.358,1.125,5.271,3.086    c4.273,4.382,8.481,12.98,8.246,22.307L56.152,41.359z" fill="currentColor"/>
      <circle cx="42.84" cy="22.765" r="2.234" fill="currentColor"/>
      <circle cx="42.84" cy="32.116" r="2.234" fill="currentColor"/>
      <circle cx="47.516" cy="27.441" r="2.234" fill="currentColor"/>
      <circle cx="38.162" cy="27.441" r="2.234" fill="currentColor"/>
    </g>
    <rect fill="none" width="64" height="64" />
  </symbol>

  <symbol id="music" width="64" height="64" viewBox="0 0 64 64">
    <path d="M32,10.667c-11.641,0-21.111,9.47-21.111,21.11V42.39c0,6.035,4.909,10.944,10.943,10.944h2.246   c0.553,0,1-0.447,1-1V32.446c0-0.552-0.447-1-1-1h-2.246c-3.694,0-6.961,1.846-8.943,4.657v-4.327   c0-10.537,8.573-19.11,19.111-19.11c10.537,0,19.11,8.573,19.11,19.11v4.327c-1.982-2.812-5.249-4.657-8.944-4.657h-2.245   c-0.553,0-1,0.448-1,1v19.888c0,0.553,0.447,1,1,1h2.245c6.035,0,10.944-4.909,10.944-10.944V31.776   C53.11,20.136,43.641,10.667,32,10.667z M23.078,33.446v17.888h-1.246c-0.481,0-0.95-0.049-1.411-0.122V33.568   c0.461-0.073,0.93-0.122,1.411-0.122H23.078z M18.421,34.126v16.528c-3.243-1.344-5.532-4.541-5.532-8.265   S15.178,35.47,18.421,34.126z M40.921,51.334V33.446h1.245c0.481,0,0.951,0.049,1.412,0.123v17.642   c-0.461,0.074-0.931,0.123-1.412,0.123H40.921z M45.578,50.654V34.126c3.243,1.344,5.532,4.54,5.532,8.264   S48.821,49.31,45.578,50.654z" fill="currentColor"/>
    <rect fill="none" width="64" height="64" />
  </symbol>

  <symbol id="puzzles" width="64" height="64" viewBox="0 0 64 64">
    <g>
      <path d="M52.708,20.467L32.5,8.8c-0.309-0.179-0.691-0.179-1,0L11.293,20.467c-0.31,0.179-0.5,0.509-0.5,0.866   v23.334c0,0.357,0.19,0.688,0.5,0.866L31.5,57.2c0.154,0.089,0.327,0.134,0.5,0.134s0.346-0.045,0.5-0.134l20.208-11.667   c0.31-0.179,0.5-0.509,0.5-0.866V21.333C53.208,20.976,53.018,20.646,52.708,20.467z M51.208,32.422l-8.104,4.679v-9.357   l8.104-4.678V32.422z M12.793,23.065l8.104,4.678v9.357l-8.104-4.679V23.065z M42.104,26.011l-8.104-4.678l8.104-4.679l8.104,4.679   L42.104,26.011z M40.104,27.166L32,31.845l-8.103-4.678L32,22.488L40.104,27.166z M32,33L32,33L32,33L32,33z M21.896,26.012   l-8.104-4.679l8.104-4.679L30,21.333L21.896,26.012z M22.896,28.898L31,33.576v9.358l-8.104-4.679V28.898z M31,45.244v9.358   l-8.104-4.679v-9.358L31,45.244z M33,45.244l8.104-4.679v9.357L33,54.603V45.244z M33,42.935v-9.358l8.104-4.678v9.358L33,42.935z    M32,10.821l8.104,4.679L32,20.178L23.896,15.5L32,10.821z M12.793,34.731l8.104,4.679v9.358l-8.104-4.679V34.731z M43.104,48.769   V39.41l8.104-4.679v9.358L43.104,48.769z" fill="currentColor"/>
      <rect fill="none" width="64" height="64" />
    </g>
  </symbol>

  <symbol id="code" width="64" height="64" viewBox="0 0 64 64">
    <path d="M53.627,20.167c0-0.002-0.001-0.003-0.001-0.005v-8.788c0-0.553-0.447-1-1-1H11.374c-0.553,0-1,0.447-1,1v41.252    c0,0.553,0.447,1,1,1h41.252c0.553,0,1-0.447,1-1V20.172C53.626,20.17,53.627,20.169,53.627,20.167z M51.626,12.374v6.793H12.374    v-6.793H51.626z M12.374,51.626V21.167h39.252v30.459H12.374z M24.264,29.145c0,0.357-0.19,0.688-0.5,0.866l-6.89,3.977    c-0.157,0.091-0.329,0.134-0.499,0.134c-0.346,0-0.682-0.18-0.867-0.5c-0.276-0.479-0.112-1.09,0.366-1.366l5.39-3.11l-5.39-3.111    c-0.479-0.276-0.643-0.888-0.366-1.366s0.889-0.642,1.366-0.366l6.89,3.978C24.073,28.457,24.264,28.787,24.264,29.145z" fill="currentColor"/>
    <rect fill="none" width="64" height="64" />
  </symbol>

  <symbol id="design" width="64" height="64" viewBox="0 0 64 64">
    <path d="M53.332,43.668L41.664,32l7.541-7.54c0-0.001,0.001-0.001,0.001-0.001s0-0.001,0.001-0.001l4.124-4.124   c0.391-0.391,0.391-1.023,0-1.414l-8.25-8.252c-0.188-0.188-0.441-0.293-0.707-0.293s-0.52,0.105-0.707,0.293l-4.123,4.123   c-0.001,0.001-0.002,0.001-0.003,0.002s-0.001,0.002-0.002,0.003l-7.541,7.541L20.332,10.669c-0.375-0.375-1.039-0.375-1.414,0   l-8.25,8.251c-0.391,0.391-0.391,1.023,0,1.414L22.334,32l-7.596,7.597c-0.084,0.084-0.145,0.186-0.194,0.292   c-0.013,0.028-0.024,0.055-0.034,0.084c-0.009,0.026-0.024,0.05-0.031,0.076l-2.945,11.196c-0.091,0.345,0.008,0.711,0.26,0.962   c0.189,0.19,0.445,0.293,0.707,0.293c0.085,0,0.17-0.011,0.255-0.033l11.195-2.946c0.026-0.007,0.05-0.022,0.076-0.031   c0.029-0.01,0.056-0.021,0.084-0.034c0.106-0.05,0.208-0.11,0.292-0.194l7.597-7.596l11.668,11.668   c0.195,0.195,0.451,0.293,0.707,0.293s0.512-0.098,0.707-0.293l8.251-8.251C53.723,44.691,53.723,44.059,53.332,43.668z    M23.695,47.14l-6.836-6.836l7.589-7.589c0.003-0.003,0.006-0.003,0.009-0.006l2.918-2.918c0.003-0.003,0.003-0.006,0.006-0.009   l5.321-5.321c0.001-0.001,0.002-0.001,0.003-0.002s0.001-0.002,0.002-0.003l7.541-7.541l6.837,6.837l-7.532,7.531   c-0.003,0.003-0.008,0.004-0.012,0.008s-0.005,0.009-0.008,0.012L23.695,47.14z M44.374,12.789l6.836,6.838l-2.711,2.711   l-6.837-6.837L44.374,12.789z M21.039,27.877l2.21-2.211c0.391-0.391,0.391-1.023,0-1.414s-1.023-0.391-1.414,0l-2.21,2.211   l-2.711-2.711l2.21-2.211c0.391-0.391,0.391-1.023,0-1.414s-1.023-0.391-1.414,0l-2.21,2.211l-2.711-2.711l6.836-6.837   l10.959,10.961l-6.836,6.835L21.039,27.877z M15.97,42.242l5.787,5.787l-7.854,2.067L15.97,42.242z M44.374,51.212l-2.711-2.711   l2.211-2.211c0.391-0.391,0.391-1.023,0-1.414s-1.023-0.391-1.414,0l-2.211,2.211l-2.711-2.711l2.211-2.21   c0.391-0.391,0.391-1.023,0-1.414s-1.023-0.391-1.414,0l-2.211,2.21l-2.71-2.71l2.21-2.211c0.001-0.001,0.001-0.003,0.002-0.004   l4.624-4.623l10.961,10.961L44.374,51.212z" fill="currentColor"/>
    <rect fill="none" width="64" height="64" />
  </symbol>  

  <symbol id="piano" width="64" height="64" viewBox="0 0 64 64">
    <path d="M52.626,10.374h-9.527h-8.446h-5.304h-8.446h-9.528c-0.553,0-1,0.447-1,1v41.252c0,0.553,0.447,1,1,1   h41.252c0.553,0,1-0.447,1-1V11.374C53.626,10.821,53.179,10.374,52.626,10.374z M42.099,12.374v23.534h-6.446V12.374H42.099z    M29.349,37.908c0.553,0,1-0.447,1-1V12.374h3.304v24.534c0,0.553,0.447,1,1,1h3.224v13.718H26.125V37.908H29.349z M28.349,12.374   v23.534h-6.446V12.374H28.349z M12.374,12.374h7.528v24.534c0,0.553,0.447,1,1,1h3.223v13.718H12.374V12.374z M51.626,51.626   h-11.75V37.908h3.223c0.553,0,1-0.447,1-1V12.374h7.527V51.626z" fill="currentColor"/>
    <rect fill="none" width="64" height="64" />
  </symbol>

  <symbol id="chocolate" width="64" height="64" viewBox="0 0 64 64">
    <path d="M57.824,25.213L39.84,7.227c-0.188-0.188-0.441-0.293-0.707-0.293s-0.52,0.105-0.707,0.293L24.263,21.39   L6.227,39.426c-0.188,0.188-0.293,0.441-0.293,0.707s0.105,0.52,0.293,0.707l17.987,17.985c0.195,0.195,0.451,0.293,0.707,0.293   s0.512-0.098,0.707-0.293L36.162,48.29l0.741,1.579c0.139,0.295,0.412,0.504,0.732,0.561c0.058,0.01,0.115,0.015,0.173,0.015   c0.263,0,0.518-0.104,0.707-0.293l9.019-9.019c0.198-0.198,0.305-0.471,0.292-0.751s-0.142-0.542-0.356-0.723l-1.455-1.221   l11.81-11.812C58.215,26.236,58.215,25.604,57.824,25.213z M39.133,9.348l7.579,7.579l-5.668,5.668l-7.579-7.579L39.133,9.348z    M32.051,16.43l7.579,7.579l-4.924,4.924L26.45,22.03L32.051,16.43z M41.044,25.423l7.579,7.579l-4.121,4.121l-8.256-6.902   L41.044,25.423z M24.921,56.704L8.348,40.133l3.068-3.068l16.572,16.572L24.921,56.704z M29.402,52.223L12.83,35.65l11.84-11.84   l10.589,22.555L29.402,52.223z M38.108,47.73l-0.737-1.571c-0.002-0.003-0.002-0.006-0.003-0.009l-8.796-18.733l-0.77-1.64   L45.348,40.49L38.108,47.73z M50.037,31.588l-7.579-7.579l5.667-5.667l7.578,7.578L50.037,31.588z" fill="currentColor"/>
    <rect fill="none" width="64" height="64" />
  </symbol>

  <symbol id="chocolate-1" width="64" height="64" viewBox="0 0 64 64">
    <path d="M53.59,30.86a.87.87,0,0,0,.06-1.21,3.07,3.07,0,0,1-.81-2.17,1.06,1.06,0,0,0-.36-.85,1.1,1.1,0,0,0-.69-.25l-.2,0a3.12,3.12,0,0,1-1,0,3,3,0,0,1-1.38-5.34,1.05,1.05,0,0,0,.41-.91,1,1,0,0,0-.24-.59l-.15-.15a.71.71,0,0,0-.14-.1,2.82,2.82,0,0,1-1-.95,2.93,2.93,0,0,1-.47-2.09,2.86,2.86,0,0,1,.32-1L46.41,13.8,39.84,7.23a1,1,0,0,0-.7-.29,1,1,0,0,0-.71.29L24.27,21.39l-18,18a1,1,0,0,0-.29.71,1,1,0,0,0,.29.7l18,18a1,1,0,0,0,1.41,0L36.17,48.29l.74,1.58a1,1,0,0,0,.73.56l.17,0a1,1,0,0,0,.71-.3l9-9a1,1,0,0,0,.29-.76,1,1,0,0,0-.36-.72L46,38.44l6.76-6.76ZM39.14,9.35l6.44,6.44a1.16,1.16,0,0,0,0,.18,5,5,0,0,0,.1,2L41.05,22.6,33.47,15Zm-7.08,7.08L39.63,24l-4.92,4.93L26.45,22ZM24.93,56.71,8.35,40.14l3.07-3.07L28,53.64Zm4.48-4.48L12.83,35.65,24.67,23.81,35.26,46.37Zm8.7-4.5-.73-1.57h0L28.58,27.42l-.77-1.64L45.35,40.49Zm6.4-10.6-8.26-6.91,4.8-4.79L48.63,33ZM50,31.59,42.46,24l4.12-4.12a3.47,3.47,0,0,0,.4.46,5.1,5.1,0,0,0,3.29,8.15,4.87,4.87,0,0,0,.55.06,5,5,0,0,0,.62,1.63Z" fill="currentColor"/>
    <rect fill="none" width="64" height="64" />
  </symbol>

  <symbol id="chocolate-2" width="64" height="64" viewBox="0 0 64 64">
    <path d="M41.05,22.6l-1.48-1.48a4.69,4.69,0,0,0,1.73-1.35,3.43,3.43,0,0,0,.32-.43,4.71,4.71,0,0,0,2.49.2Zm4.82-6a.88.88,0,0,0-.72.25,2.82,2.82,0,0,1-3.44.29,1,1,0,0,0-.87-.11,1,1,0,0,0-.62.61,2.88,2.88,0,0,1-.47.84,2.75,2.75,0,0,1-1.78,1,2.79,2.79,0,0,1-2.22-.6,2.82,2.82,0,0,1-1-1.86,1,1,0,0,0-.54-.78,1,1,0,0,0-.45-.1,1,1,0,0,0-.5.13,2.88,2.88,0,0,1-1,.33,2.38,2.38,0,0,1-.46,0A2.93,2.93,0,0,1,30,16l-.22-.2L6.23,39.43a1,1,0,0,0-.29.71,1,1,0,0,0,.29.7l18,18a1,1,0,0,0,1.41,0L36.17,48.29l.74,1.58a1,1,0,0,0,.73.56l.17,0a1,1,0,0,0,.71-.3l9-9a1,1,0,0,0,.29-.76,1,1,0,0,0-.36-.72L46,38.44l6.76-6.76.81-.82a.87.87,0,0,0,.06-1.21,3.07,3.07,0,0,1-.81-2.17,1.06,1.06,0,0,0-.36-.85,1.1,1.1,0,0,0-.69-.25l-.2,0a3.12,3.12,0,0,1-1,0,3,3,0,0,1-1.38-5.34,1.05,1.05,0,0,0,.41-.91,1,1,0,0,0-.24-.59l-.15-.15a.71.71,0,0,0-.14-.1,2.82,2.82,0,0,1-1-.95,2.76,2.76,0,0,1-.35-.71,1.29,1.29,0,0,0-1-.9ZM30.12,18.36a4.81,4.81,0,0,0,2.93.17,4.83,4.83,0,0,0,4.11,3L39.63,24l-4.92,4.93L26.45,22ZM24.93,56.71,8.35,40.14l3.07-3.07L28,53.64Zm4.48-4.48L12.83,35.65,24.67,23.81,35.26,46.37Zm8.7-4.5-.73-1.57h0L28.58,27.42l-.77-1.64L45.35,40.49Zm6.4-10.6-8.26-6.91,4.8-4.79L48.63,33ZM50,31.59,42.46,24l4.12-4.12a3.47,3.47,0,0,0,.4.46,5.1,5.1,0,0,0,3.29,8.15,4.87,4.87,0,0,0,.55.06,5,5,0,0,0,.62,1.63Z" fill="currentColor"/>
    <rect fill="none" width="64" height="64"/>
  </symbol>

  <symbol id="chocolate-3" width="64" height="64" viewBox="0 0 64 64">
    <rect fill="none" width="64" height="64"/>
  </symbol>

  <symbol id="x" width="64" height="64" viewBox="0 0 64 64">
    <path d="M12.2929 12.2929C12.6834 11.9024 13.3166 11.9024 13.7071 12.2929L51.8909 50.4767C52.2814 50.8672 52.2814 51.5004 51.8909 51.8909C51.5003 52.2814 50.8672 52.2814 50.4767 51.8909L12.2929 13.7071C11.9024 13.3166 11.9024 12.6834 12.2929 12.2929Z" fill="currentColor"/>
    <path d="M12.2929 51.8909C11.9024 51.5003 11.9024 50.8672 12.2929 50.4767L50.4767 12.2929C50.8672 11.9024 51.5004 11.9024 51.8909 12.2929C52.2814 12.6834 52.2814 13.3166 51.8909 13.7071L13.7071 51.8909C13.3166 52.2814 12.6834 52.2814 12.2929 51.8909Z" fill="currentColor"/>
    <rect width="64" height="64" fill="none"></rect>
  </symbol>
</svg>