<svg viewBox="0 0 129 129" xmlns="http://www.w3.org/2000/svg" xmlns:xlink="http://www.w3.org/1999/xlink">
  <symbol id="easd" width="129" height="129" viewBox="0 0 129 129">
    <path d="M97 53.5977H86.1354V43.2989H75.2709V33H97V53.5977ZM96.6254 97V75.6667H86.1354V86.3333H75.6455V97H96.6254ZM64.4063 33C46.7983 33 32 47.2448 32 64.8161C32 82.3874 46.7983 96.6322 64.4063 96.6322V33Z" fill="currentColor"/>
    <rect width="129" height="129" fill="none"/>
  </symbol>

  <symbol id="esat" width="129" height="129" viewBox="0 0 129 129">
    <path d="M94 100H87.7598L64.5202 44.1035L41.2806 100H35L64.5009 29L94 100Z" fill="currentColor"/>
    <rect width="129" height="129" fill="none"/>
  </symbol>

  <symbol id="doyouspain" width="129" height="129" viewBox="0 0 129 129">
    <g>
      <path fill-rule="evenodd" clip-rule="evenodd" d="M87.6 59.2c-2-.5-3.3-1-4-1.6-.7-.6-1-1.6-1-2.7 0-.7.2-1.3.7-1.9.4-.6 1-1 1.6-1.3.7-.4 1.4-.6 2.1-.7.7-.1 1.4-.2 2.3-.2 2.2 0 4.3.4 6.3 1.3 2 .9 3.8 1.9 5.2 3.2h.8V46.6c-1.8-.8-3.8-1.5-6.1-1.9-2.3-.5-4.5-.7-6.8-.7-4.5 0-8.3 1.2-11.4 3.5-3 2.3-4.6 5.3-4.6 9 0 2.8.6 4.8 1.9 6.7 0 0 0 0 .1.1 0 0 .5.7.9 1 .4.4 1.1.9 1.1.9 1.2.9 2.6 1.7 4.4 2.3 1.3.5 2.7.9 4.2 1.2 1.5.3 2.9.7 4.2 1 1 .3 2.1 1 2.9 1.6.8.6 1.2 1.4 1.2 2.4 0 .9-.2 1.6-.6 2.1-.5.5-1.3 1-2 1.3-.6.3-1.3.5-2.2.6-.9.1-1.6.2-2.2.2-2.2 0-4.4-.5-6.7-1.4-2.3-.9-4.4-2.2-6.4-3.9h-.9v9.4c1.9.9 4 1.4 6.2 2 2.2.6 4.8.9 7.7.9 5.1 0 9.1-1 12.1-3.4C101.5 79.1 103 75.9 103 72c0-2.8-.6-5-1.9-6.7-1.3-1.7-3.3-3-5.9-4-1.4-.5-2.6-.9-3.8-1.2-1.2-.3-2.4-.6-3.7-.9Z" fill="currentColor"/>
      <path d="M62.3 82.6c5.1-6.6 8.6-17.2 10.8-26.4-1.1 0-6.4 0-6.4 0s-3.3 14.1-4.4 14.1c0-.9-5.1-14.1-5.1-14.1H49.7s9 17.1 9 21.4C58.7 82 55 88.1 55 88.1s2.9.4 7.3-5.5Z" fill="currentColor"/>
      <path fill-rule="evenodd" clip-rule="evenodd" d="m36.2 84.2H25V46.5h13.1c14.9 0 18.8 11.6 18.8 18.9 0 11.2-7.8 18.8-20.7 18.8zm1.4-30.7c-1.4 0-3.5 0-3.5 0v23.6s3.4 0 4.8 0c5 0 8.8-4.7 8.8-11.7 0-6.2-3-11.9-10.1-11.9z" fill="currentColor"/>
    </g>
    <rect width="129" height="129" fill="none"/>
  </symbol>

  <symbol id="streamloots" width="129" height="129" viewBox="0 0 129 129">
    <g>
      <path d="m50.9 92.5-7.4 1.6c-.3 0-.5 0-.7 0-.8 0-1.6-.2-2.2-.7s-1-1.2-1.1-1.9L30.1 47c-.2-.8 0-1.7.5-2.5.4-.7 1.2-1.3 2.1-1.4l22.9-4.8-2.1 10.1-10.8 1.1c-.7.1-1.4.4-1.9 1s-.8 1.3-.8 2.1v25.5c0 .8.3 1.5.8 2.1.5.5 1.2.9 1.9 1l3.7.3-.7 3c-.3 1.8 0 3.6 1 5.1.9 1.5 2.4 2.5 4.2 2.9z" fill="currentColor"/>
      <path d="M57 48l25.4-2.7c.4 0 .7 0 1.1.1.3.1.6.3.9.5.3.3.5.6.6.9.2.3.2.7.2 1V82.6c0 .4 0 .7-.2 1-.1.4-.3.7-.6.9-.3.2-.6.4-.9.5-.4.1-.7.2-1.1.1L49.8 81.9 49 85.2c-.1.9 0 1.8.5 2.6.5.7 1.3 1.2 2.2 1.4l31.6 6.7c.2.1.5.1.7.1.8 0 1.5-.3 2.1-.8.6-.4 1.1-1.1 1.2-1.9L97.9 43.8c.2-.9 0-1.8-.4-2.6-.5-.7-1.3-1.2-2.2-1.4L63.7 33.1c-.3-.1-.5-.1-.7-.1-.8 0-1.6.3-2.2.8-.6.4-1 1.1-1.1 1.9L57 48Z" fill="currentColor"/>
      <path d="M70.0344 66.1055l-.0001-5.3045c-.0016-.4704-.1904-.9211-.5251-1.2536-.3348-.3325-.7883-.5198-1.2614-.5209h-.0462c-.4713.0033-.9223.1916-1.2546.524s-.5191.7819-.5195 1.2505v5.304c.0027.4671.1905.9142.5226 1.2445.3322.3303.7819.5171 1.2516.5199h.0462c.4715-.0005.9238-.1861 1.2584-.5164.3345-.3304.5243-.7787.5281-1.2475Zm-17.2892-.5296.0001-4.2457c0-.9754-.7097-1.7745-1.5968-1.7745-.887 0-1.5968.7991-1.5968 1.7745v4.2457c0 .9736.7096 1.7727 1.5967 1.7727.8871 0 1.5968-.7991 1.5968-1.7727ZM75.623 53.0204c.2395-.02.4806.0101.7077.0883.2271.0783.4353.2029.611.3658.1758.163.3154.3608.4097.5806.0943.2198.1413.4568.138.6957V76.886c.0013.18-.0275.3589-.0851.5296-.0998.3221-.2945.607-.5589.8179-.2644.211-.5864.3382-.9242.3652-.0991.0107-.199.0107-.2981 0L45.9803 76.4944c-.5041-.0436-.9739-.2716-1.3187-.6398-.3448-.3681-.5399-.8504-.5477-1.3534V57.1179c.0085-.5027.204-.9846.5486-1.3526.3446-.368.814-.5962 1.3178-.6406L75.623 53.0204Z" fill="currentColor"/>
    </g>
    <rect width="129" height="129" fill="none"/>
  </symbol>

  <symbol id="undefind_academy" width="129" height="129" viewBox="0 0 129 129">
    <g>
      <path d="M79.4361 65.7141L55.9022 89.2578L29 62.3445L62.3317 29L64.695 31.3643L33.7277 62.3445L55.9022 84.5282L74.6123 65.8103L73.6094 64.8071L55.9022 82.5216L35.7334 62.3445L65.6979 32.3676L68.0622 34.7329L40.4611 62.3445L55.9022 77.792L73.7056 59.9812L79.4361 65.7141Z" fill="currentColor"/>
      <path d="M49.5638 63.286L73.0978 39.7423L100 66.6556L66.6683 100L64.305 97.6357L95.2723 66.6556L73.0978 44.4719L54.3877 63.1897L55.3906 64.193L73.0978 46.4785L93.2666 66.6557L63.3021 96.6326L60.9378 94.2673L88.5389 66.6557L73.0978 51.2082L55.2943 69.0189L49.5638 63.286Z" fill="currentColor"/>
    </g>
    <rect width="129" height="129" fill="none"/>
  </symbol>

  <symbol id="medac" width="129" height="129" viewBox="0 0 129 129">
    <path d="M75.4 74.5c-2.7.7-6.1 1.6-11.3 1.6 0 0 0 0 0 0-.1 0-.1 0-.1 0-5.2 0-8.5-.9-11.2-1.6-2-.6-3.8-1-5.8-1-3.8 0-7.9 1.2-9.8 1.8 0 .2.1.3.1.5 0 0 0 0 0 0s1.4 6.1 7.5 11.1C50.9 92 63.9 101 63.9 101S78.3 90.6 80.7 88.9c7-5.6 9.1-10.1 9.7-12.3h.1s.2-.6.3-1.3c-1.9-.7-6-1.8-9.6-1.8-2.1 0-3.8.4-5.8 1Z" fill="currentColor"/>
    <path d="M75.6 67.2c2-.5 3.8-1 5.8-1 3.7 0 7.9 1.3 9.8 1.9v3.5c-2.3-.7-6.2-1.7-9.8-1.7-2.5 0-4.5.5-6.7 1.1-2.7.7-5.7 1.5-10.4 1.5-4.8 0-7.8-.8-10.4-1.5-2.1-.6-4.2-1.1-6.7-1.1-3.7 0-7.7 1-10 1.7V68.1c1.8-.6 6.1-1.9 10-1.9 2 0 3.8.5 5.8 1 2.7.7 6 1.6 11.2 1.6 0 0 0 0 0 0s0 0 0 0c5.1 0 8.5-.9 11.2-1.6Z" fill="currentColor"/>
    <path d="M91 32.4 74.6 61.1s-.1 0-.2 0c-1 .3-2 .6-3.2.8L90 29H86.7L67.6 62.5c-.9.1-1.9.1-3 .1L83.8 29H80.6L61.4 62.6c-1-.1-1.9-.2-2.8-.3L77.6 29H37V64.3c2.3-.7 6.3-1.7 10-1.7 2.5 0 4.5.5 6.7 1.1 2.6.7 5.6 1.5 10.4 1.5 4.7 0 7.7-.8 10.3-1.5 2.2-.5 4.2-1.1 6.8-1.1 3.6 0 7.4 1 9.8 1.7V43.5L81.6 60c-.2 0-.4 0-.6 0-.9 0-1.7.1-2.4.2L91 38.4v-6ZM52.5 46l-.9 4.2-.9-4.2-4.3-.9 4.3-1 .9-4.2.9 4.3 4.1.9-4.1.9Z" fill="currentColor"/>
    <rect width="129" height="129" fill="none"/>
  </symbol>

  <symbol id="freelance" width="129" height="129" viewBox="0 0 129 129">
    <path d="M82.6911 98H97L70.8708 32H57.1291L31.3899 97.0168L31 98H45.3105L55.5351 72.1739H72.4661L82.6911 98ZM56.1035 70.7388H43.3229L57.6099 34.648L71.8993 70.7388H56.1035Z" fill="currentColor"/>
    <rect width="129" height="129" fill="none"/>
  </symbol>

  <symbol id="arocival" width="129" height="129" viewBox="0 0 129 129">
    <g>
      <path d="M62.6704 56.0543H56.1582C56.0749 56.0543 55.9936 56.0791 55.9245 56.1255C55.8554 56.1718 55.8016 56.2377 55.77 56.3147C55.7384 56.3917 55.7305 56.4764 55.7472 56.5579C55.7638 56.6395 55.8043 56.7143 55.8636 56.7727L58.1219 58.9915V85.7119C58.1641 86.9505 58.6295 88.1373 59.4405 89.0744C60.2515 90.0116 61.3592 90.6425 62.5789 90.862C62.609 90.8687 62.6396 90.8721 62.6704 90.8721C62.7817 90.8721 62.8884 90.8279 62.9671 90.7492C63.0458 90.6705 63.09 90.5638 63.09 90.4525V56.4739C63.09 56.4188 63.0791 56.3643 63.058 56.3133C63.0369 56.2624 63.0061 56.2162 62.9671 56.1772C62.9282 56.1382 62.8819 56.1074 62.831 56.0863C62.7801 56.0652 62.7255 56.0543 62.6704 56.0543Z" fill="currentColor"/>
      <path d="M65.3222 90.6329C65.3527 90.6328 65.3831 90.6294 65.4129 90.6228C66.6327 90.4033 67.7405 89.7724 68.5516 88.8352C69.3628 87.8981 69.8283 86.7113 69.8707 85.4726V58.7515L72.1198 56.5334C72.179 56.475 72.2195 56.4003 72.2362 56.3189C72.2529 56.2374 72.245 56.1529 72.2135 56.0759C72.182 55.9989 72.1284 55.933 72.0594 55.8866C71.9905 55.8401 71.9092 55.8152 71.826 55.8151H65.3222C65.2109 55.8151 65.1042 55.8593 65.0255 55.9379C64.9468 56.0166 64.9026 56.1234 64.9026 56.2347V90.2133C64.9026 90.3246 64.9468 90.4313 65.0255 90.51C65.1042 90.5886 65.2109 90.6329 65.3222 90.6329Z" fill="currentColor"/>
      <path d="M80.3851 45.8058H80.4556C91.5516 45.8058 94.6382 37.9315 94.6676 37.8518C94.6979 37.771 94.7026 37.6828 94.681 37.5993C94.6594 37.5157 94.6126 37.4408 94.5469 37.3848C94.4812 37.3289 94.3998 37.2945 94.3139 37.2865C94.2279 37.2784 94.1416 37.2971 94.0667 37.3399C94.0121 37.3709 88.5816 40.4323 83.3651 40.4323C80.9584 40.4007 78.5682 40.0292 76.2655 39.3288C74.8263 38.8743 73.3338 38.6105 71.826 38.5441C70.5269 38.5809 69.2498 38.8884 68.0763 39.447C66.9028 40.0055 65.8587 40.8027 65.0109 41.7877C64.9412 41.8647 64.9026 41.9649 64.9026 42.0688V45.711C64.9025 45.8187 64.9438 45.9224 65.018 46.0005C65.0922 46.0786 65.1936 46.1252 65.3012 46.1306C77.3556 46.7323 83.9945 55.6438 83.9945 71.2228C83.9945 86.8018 77.3556 95.7049 65.3004 96.3075C65.1929 96.3131 65.0917 96.3598 65.0177 96.4379C64.9437 96.5159 64.9024 96.6195 64.9026 96.7271V99.5804C64.9026 99.6917 64.9468 99.7985 65.0255 99.8771C65.1042 99.9558 65.2109 100 65.3222 100H65.3348C83.8812 99.4294 98.4037 86.7901 98.4037 71.2237C98.4037 60.4835 91.4098 50.7302 80.3851 45.8058Z" fill="currentColor"/>
      <path d="M62.657 42.4456C44.1106 43.0163 29.5923 55.6564 29.5923 71.2228C29.5923 86.7893 44.1173 99.4286 62.657 99.9992H62.6704C62.7817 99.9992 62.8885 99.955 62.9672 99.8763C63.0458 99.7976 63.09 99.6909 63.09 99.5796V96.7263C63.0902 96.6186 63.0488 96.5149 62.9746 96.4368C62.9004 96.3586 62.799 96.3121 62.6914 96.3067C50.6371 95.7042 43.9981 86.796 43.9981 71.222C43.9981 55.648 50.637 46.7306 62.6906 46.1297C62.7983 46.1246 62.8999 46.0781 62.9743 45.9999C63.0487 45.9218 63.0902 45.818 63.09 45.7101V42.8644C63.0899 42.8081 63.0785 42.7525 63.0564 42.7007C63.0344 42.6489 63.0021 42.6022 62.9616 42.5631C62.9215 42.5239 62.8738 42.4932 62.8214 42.473C62.7691 42.4528 62.7131 42.4435 62.657 42.4456Z" fill="currentColor"/>
      <path d="M58.8185 29.7318C53.2714 29.7318 49.7014 32.8411 45.9216 36.1308C42.5807 39.0394 39.124 42.0472 34.1006 42.8495C34.0022 42.8649 33.9124 42.9147 33.8474 42.9902C33.7824 43.0657 33.7465 43.1618 33.7459 43.2614C33.7453 43.361 33.7801 43.4576 33.8442 43.5339C33.9082 43.6102 33.9973 43.6612 34.0955 43.6778C35.7429 43.9323 37.4076 44.0577 39.0745 44.0529C41.9512 44.1559 44.8152 43.622 47.4616 42.4894C48.7791 41.8567 50.2309 41.0443 51.6299 40.2588C54.672 38.5552 57.8174 36.7946 59.7064 36.7946C59.9627 36.7677 60.2215 36.8105 60.4555 36.9184C60.6895 37.0264 60.8899 37.1956 61.0357 37.4081C61.2191 37.6473 61.3299 37.9341 61.3549 38.2345C61.3799 38.5349 61.318 38.8362 61.1767 39.1024C60.7888 39.6274 60.2559 40.0275 59.6435 40.2536C59.0312 40.4796 58.366 40.5217 57.7301 40.3746C57.6411 40.3528 57.5474 40.3606 57.4634 40.397C57.3793 40.4334 57.3094 40.4962 57.2644 40.576C57.2194 40.6558 57.2018 40.7482 57.2142 40.8389C57.2266 40.9297 57.2684 41.0139 57.3332 41.0787C58.4393 42.0455 59.8674 42.5632 61.3361 42.5297C64.4521 42.5297 65.8469 39.2106 65.8469 35.921C65.8469 32.1655 63.0884 29.7318 58.8185 29.7318Z" fill="currentColor"/>
    </g>
    <rect width="129" height="129" fill="none"/>
  </symbol>
</svg>