<svg viewBox="0 0 129 129" xmlns="http://www.w3.org/2000/svg" xmlns:xlink="http://www.w3.org/1999/xlink">
  <symbol id="easd" width="129" height="129" viewBox="0 0 129 129">
    <path d="M97 53.5977H86.1354V43.2989H75.2709V33H97V53.5977ZM96.6254 97V75.6667H86.1354V86.3333H75.6455V97H96.6254ZM64.4063 33C46.7983 33 32 47.2448 32 64.8161C32 82.3874 46.7983 96.6322 64.4063 96.6322V33Z" fill="currentColor"/>
    <rect width="129" height="129" fill="none"/>
  </symbol>

  <symbol id="esat" width="129" height="129" viewBox="0 0 129 129">
    <path d="M94 100H87.7598L64.5202 44.1035L41.2806 100H35L64.5009 29L94 100Z" fill="currentColor"/>
    <rect width="129" height="129" fill="none"/>
  </symbol>

  <symbol id="doyouspain" width="129" height="129" viewBox="0 0 129 129">
    <g>
      <path fill-rule="evenodd" clip-rule="evenodd" d="M87.6 59.2c-2-.5-3.3-1-4-1.6-.7-.6-1-1.6-1-2.7 0-.7.2-1.3.7-1.9.4-.6 1-1 1.6-1.3.7-.4 1.4-.6 2.1-.7.7-.1 1.4-.2 2.3-.2 2.2 0 4.3.4 6.3 1.3 2 .9 3.8 1.9 5.2 3.2h.8V46.6c-1.8-.8-3.8-1.5-6.1-1.9-2.3-.5-4.5-.7-6.8-.7-4.5 0-8.3 1.2-11.4 3.5-3 2.3-4.6 5.3-4.6 9 0 2.8.6 4.8 1.9 6.7 0 0 0 0 .1.1 0 0 .5.7.9 1 .4.4 1.1.9 1.1.9 1.2.9 2.6 1.7 4.4 2.3 1.3.5 2.7.9 4.2 1.2 1.5.3 2.9.7 4.2 1 1 .3 2.1 1 2.9 1.6.8.6 1.2 1.4 1.2 2.4 0 .9-.2 1.6-.6 2.1-.5.5-1.3 1-2 1.3-.6.3-1.3.5-2.2.6-.9.1-1.6.2-2.2.2-2.2 0-4.4-.5-6.7-1.4-2.3-.9-4.4-2.2-6.4-3.9h-.9v9.4c1.9.9 4 1.4 6.2 2 2.2.6 4.8.9 7.7.9 5.1 0 9.1-1 12.1-3.4C101.5 79.1 103 75.9 103 72c0-2.8-.6-5-1.9-6.7-1.3-1.7-3.3-3-5.9-4-1.4-.5-2.6-.9-3.8-1.2-1.2-.3-2.4-.6-3.7-.9Z" fill="currentColor"/>
      <path d="M62.3 82.6c5.1-6.6 8.6-17.2 10.8-26.4-1.1 0-6.4 0-6.4 0s-3.3 14.1-4.4 14.1c0-.9-5.1-14.1-5.1-14.1H49.7s9 17.1 9 21.4C58.7 82 55 88.1 55 88.1s2.9.4 7.3-5.5Z" fill="currentColor"/>
      <path fill-rule="evenodd" clip-rule="evenodd" d="m36.2 84.2H25V46.5h13.1c14.9 0 18.8 11.6 18.8 18.9 0 11.2-7.8 18.8-20.7 18.8zm1.4-30.7c-1.4 0-3.5 0-3.5 0v23.6s3.4 0 4.8 0c5 0 8.8-4.7 8.8-11.7 0-6.2-3-11.9-10.1-11.9z" fill="currentColor"/>
    </g>
    <rect width="129" height="129" fill="none"/>
  </symbol>

  <symbol id="streamloots" width="129" height="129" viewBox="0 0 129 129">
    <g>
      <path d="m50.9 92.5-7.4 1.6c-.3 0-.5 0-.7 0-.8 0-1.6-.2-2.2-.7s-1-1.2-1.1-1.9L30.1 47c-.2-.8 0-1.7.5-2.5.4-.7 1.2-1.3 2.1-1.4l22.9-4.8-2.1 10.1-10.8 1.1c-.7.1-1.4.4-1.9 1s-.8 1.3-.8 2.1v25.5c0 .8.3 1.5.8 2.1.5.5 1.2.9 1.9 1l3.7.3-.7 3c-.3 1.8 0 3.6 1 5.1.9 1.5 2.4 2.5 4.2 2.9z" fill="currentColor"/>
      <path d="M57 48l25.4-2.7c.4 0 .7 0 1.1.1.3.1.6.3.9.5.3.3.5.6.6.9.2.3.2.7.2 1V82.6c0 .4 0 .7-.2 1-.1.4-.3.7-.6.9-.3.2-.6.4-.9.5-.4.1-.7.2-1.1.1L49.8 81.9 49 85.2c-.1.9 0 1.8.5 2.6.5.7 1.3 1.2 2.2 1.4l31.6 6.7c.2.1.5.1.7.1.8 0 1.5-.3 2.1-.8.6-.4 1.1-1.1 1.2-1.9L97.9 43.8c.2-.9 0-1.8-.4-2.6-.5-.7-1.3-1.2-2.2-1.4L63.7 33.1c-.3-.1-.5-.1-.7-.1-.8 0-1.6.3-2.2.8-.6.4-1 1.1-1.1 1.9L57 48Z" fill="currentColor"/>
      <path d="M70.0344 66.1055l-.0001-5.3045c-.0016-.4704-.1904-.9211-.5251-1.2536-.3348-.3325-.7883-.5198-1.2614-.5209h-.0462c-.4713.0033-.9223.1916-1.2546.524s-.5191.7819-.5195 1.2505v5.304c.0027.4671.1905.9142.5226 1.2445.3322.3303.7819.5171 1.2516.5199h.0462c.4715-.0005.9238-.1861 1.2584-.5164.3345-.3304.5243-.7787.5281-1.2475Zm-17.2892-.5296.0001-4.2457c0-.9754-.7097-1.7745-1.5968-1.7745-.887 0-1.5968.7991-1.5968 1.7745v4.2457c0 .9736.7096 1.7727 1.5967 1.7727.8871 0 1.5968-.7991 1.5968-1.7727ZM75.623 53.0204c.2395-.02.4806.0101.7077.0883.2271.0783.4353.2029.611.3658.1758.163.3154.3608.4097.5806.0943.2198.1413.4568.138.6957V76.886c.0013.18-.0275.3589-.0851.5296-.0998.3221-.2945.607-.5589.8179-.2644.211-.5864.3382-.9242.3652-.0991.0107-.199.0107-.2981 0L45.9803 76.4944c-.5041-.0436-.9739-.2716-1.3187-.6398-.3448-.3681-.5399-.8504-.5477-1.3534V57.1179c.0085-.5027.204-.9846.5486-1.3526.3446-.368.814-.5962 1.3178-.6406L75.623 53.0204Z" fill="currentColor"/>
    </g>
    <rect width="129" height="129" fill="none"/>
  </symbol>

  <symbol id="undefind_academy" width="129" height="129" viewBox="0 0 129 129">
    <g>
      <path d="M79.4361 65.7141L55.9022 89.2578L29 62.3445L62.3317 29L64.695 31.3643L33.7277 62.3445L55.9022 84.5282L74.6123 65.8103L73.6094 64.8071L55.9022 82.5216L35.7334 62.3445L65.6979 32.3676L68.0622 34.7329L40.4611 62.3445L55.9022 77.792L73.7056 59.9812L79.4361 65.7141Z" fill="currentColor"/>
      <path d="M49.5638 63.286L73.0978 39.7423L100 66.6556L66.6683 100L64.305 97.6357L95.2723 66.6556L73.0978 44.4719L54.3877 63.1897L55.3906 64.193L73.0978 46.4785L93.2666 66.6557L63.3021 96.6326L60.9378 94.2673L88.5389 66.6557L73.0978 51.2082L55.2943 69.0189L49.5638 63.286Z" fill="currentColor"/>
    </g>
    <rect width="129" height="129" fill="none"/>
  </symbol>
</svg>