<svg xmlns="http://www.w3.org/2000/svg"
  xmlns:xlink="http://www.w3.org/1999/xlink"
  version="1.1"
  x="0px" y="0px"
  viewBox="0 0 32 32"
  xml:space="preserve"
>
  <symbol id="chain">
    <g>
      <path d="M9.65193 28C8.66525 27.9885 7.80685 27.6441 7.09891 26.9496C6.40659 26.2699 5.71921 25.5852 5.04251 24.8899C3.66363 23.4737 3.64472 21.2307 5.03265 19.8269C7.36038 17.473 9.70126 15.1338 12.0561 12.8078C13.4893 11.3925 15.7405 11.4229 17.1704 12.8382C17.5034 13.1678 17.8372 13.4949 18.1604 13.8335C18.6068 14.3012 18.6076 15.0006 18.1735 15.4338C17.7353 15.8702 17.0421 15.8719 16.5726 15.4256C16.2421 15.1108 15.9288 14.7779 15.6016 14.4598C14.9981 13.8738 14.1849 13.8664 13.5871 14.4615C11.2824 16.7562 8.98181 19.0568 6.6845 21.3598C6.11141 21.9343 6.1147 22.7702 6.68533 23.3521C7.3242 24.0039 7.97047 24.6499 8.6225 25.2877C9.27206 25.9222 10.0614 25.9132 10.7126 25.2663C11.9024 24.0836 13.0872 22.8951 14.2737 21.7091C14.6198 21.3631 15.0268 21.2414 15.493 21.4033C15.9486 21.5611 16.1911 21.8998 16.2363 22.3757C16.2684 22.7126 16.1599 23.0077 15.9222 23.2469C14.6478 24.5225 13.3832 25.8088 12.089 27.0647C11.423 27.7082 10.5852 27.9901 9.65193 28Z" fill="currentColor"/>
      <path d="M28 9.64998C27.991 10.6223 27.6818 11.4804 27.001 12.1659C24.6527 14.5313 22.3069 16.9001 19.9265 19.2326C18.509 20.6217 16.2331 20.5617 14.8287 19.1669C14.5048 18.8447 14.1775 18.5266 13.8609 18.197C13.398 17.7154 13.3964 17.0094 13.8486 16.5721C14.2934 16.1423 14.9808 16.1529 15.4487 16.6042C15.7685 16.9132 16.076 17.2362 16.3959 17.5461C16.9969 18.1288 17.8282 18.1477 18.4161 17.5633C20.7298 15.2603 23.0387 12.9516 25.3417 10.6379C25.8803 10.0963 25.8984 9.27272 25.3746 8.72286C24.6971 8.01273 24.0023 7.31904 23.2936 6.63932C22.7336 6.10261 21.9032 6.14617 21.326 6.71904C20.1362 7.90177 18.9538 9.09354 17.7641 10.2771C17.2428 10.7965 16.5151 10.8105 16.0662 10.3223C15.6723 9.89409 15.6493 9.22094 16.0653 8.7993C17.348 7.49904 18.6151 6.18151 19.9496 4.93549C21.3441 3.63359 23.5115 3.71085 24.8846 5.0407C25.5892 5.72371 26.2824 6.41904 26.9681 7.12178C27.6522 7.82533 27.9868 8.67683 28 9.64998Z" fill="currentColor"/>
    </g>
    <rect fill="none" width="32" height="32"/>
  </symbol>

  <symbol id="demo">
    <path fill-rule="evenodd" clip-rule="evenodd" d="M11.6986 12.773C11.5656 13.8689 11.5006 14.969 11.5006 16C11.5006 17.031 11.5656 18.1311 11.6986 19.2269H20.3014C20.4344 18.1311 20.4994 17.031 20.4994 16C20.4994 14.969 20.4344 13.8689 20.3014 12.773H11.6986ZM10.0276 12.773C9.90143 13.8777 9.84101 14.9746 9.84101 16C9.84101 17.0254 9.90143 18.1223 10.0276 19.2269H5.12838C4.81806 18.1815 4.65957 17.0947 4.65957 16C4.65957 14.9053 4.81806 13.8185 5.12838 12.773H10.0276ZM11.9547 11.1135H20.0453C19.8541 10.1023 19.6013 9.12787 19.2843 8.25133C18.8716 7.10987 18.3688 6.18694 17.7962 5.56259C17.2352 4.95084 16.6434 4.65957 16 4.65957C15.3566 4.65957 14.7648 4.95084 14.2038 5.56259C13.6312 6.18694 13.1284 7.10987 12.7157 8.25133C12.3987 9.12787 12.1459 10.1023 11.9547 11.1135ZM12.337 5.26746C11.8634 5.97649 11.4737 6.80557 11.155 7.68703C10.7727 8.74426 10.4793 9.91429 10.2677 11.1135H5.76637C6.32075 9.95247 7.06931 8.8929 7.98111 7.98111C9.03416 6.92805 10.2843 6.09272 11.6602 5.52281C11.8833 5.4304 12.109 5.34526 12.337 5.26746ZM3.80281 11.5024C3.86187 11.3422 3.92413 11.1831 3.98957 11.0251C4.64288 9.44788 5.60045 8.01477 6.80761 6.80761C8.01477 5.60045 9.44788 4.64288 11.0251 3.98957C12.6023 3.33625 14.2928 3 16 3C17.7072 3 19.3977 3.33625 20.9749 3.98957C22.5521 4.64288 23.9852 5.60045 25.1924 6.80761C26.3995 8.01477 27.3571 9.44788 28.0104 11.0251C28.0759 11.1831 28.1381 11.3422 28.1972 11.5024C28.261 11.6039 28.3034 11.7202 28.3181 11.845C28.7691 13.1819 29 14.5852 29 16C29 17.4148 28.7691 18.8181 28.3181 20.155C28.3034 20.2798 28.261 20.3961 28.1972 20.4976C28.1381 20.6578 28.0759 20.8169 28.0104 20.9749C27.3571 22.5521 26.3995 23.9852 25.1924 25.1924C23.9852 26.3995 22.5521 27.3571 20.9749 28.0104C19.3977 28.6637 17.7072 29 16 29C14.2928 29 12.6023 28.6637 11.0251 28.0104C9.44788 27.3571 8.01477 26.3995 6.80761 25.1924C5.60045 23.9852 4.64288 22.5521 3.98957 20.9749C3.92413 20.8169 3.86187 20.6578 3.80281 20.4976C3.73902 20.3961 3.6966 20.2798 3.68188 20.155C3.23094 18.8181 3 17.4148 3 16C3 14.5852 3.23094 13.1819 3.68188 11.845C3.6966 11.7202 3.73902 11.6039 3.80281 11.5024ZM5.76637 20.8865C6.32075 22.0475 7.06931 23.1071 7.98111 24.0189C9.03416 25.0719 10.2843 25.9073 11.6602 26.4772C11.8833 26.5696 12.109 26.6547 12.337 26.7325C11.8634 26.0235 11.4737 25.1944 11.155 24.313C10.7727 23.2557 10.4793 22.0857 10.2677 20.8865H5.76637ZM11.9547 20.8865C12.1459 21.8977 12.3987 22.8721 12.7157 23.7487C13.1284 24.8901 13.6312 25.8131 14.2038 26.4374C14.7648 27.0492 15.3566 27.3404 16 27.3404C16.6434 27.3404 17.2352 27.0492 17.7962 26.4374C18.3688 25.8131 18.8716 24.8901 19.2843 23.7487C19.6013 22.8721 19.8541 21.8977 20.0453 20.8865H11.9547ZM21.7323 20.8865C21.5207 22.0857 21.2273 23.2557 20.845 24.313C20.5263 25.1944 20.1366 26.0235 19.663 26.7325C19.891 26.6547 20.1167 26.5696 20.3398 26.4772C21.7157 25.9073 22.9658 25.0719 24.0189 24.0189C24.9307 23.1071 25.6793 22.0475 26.2336 20.8865H21.7323ZM26.8716 19.2269C27.1819 18.1815 27.3404 17.0947 27.3404 16C27.3404 14.9053 27.1819 13.8185 26.8716 12.773H21.9724C22.0986 13.8777 22.159 14.9746 22.159 16C22.159 17.0254 22.0986 18.1223 21.9724 19.2269H26.8716ZM21.7323 11.1135H26.2336C25.6793 9.95247 24.9307 8.89291 24.0189 7.98111C22.9658 6.92805 21.7157 6.09272 20.3398 5.52281C20.1167 5.4304 19.891 5.34526 19.663 5.26746C20.1366 5.97649 20.5263 6.80558 20.845 7.68703C21.2273 8.74426 21.5207 9.91429 21.7323 11.1135Z" fill="currentColor"/>
    <rect fill="none" width="32" height="32"/>
  </symbol>

  <symbol id="repo">
    <path d="M5.07192 19.1845C4.97603 19.0846 4.97603 18.9847 5.07192 18.8848C5.26366 18.6849 5.50343 18.61 5.79106 18.66C6.07874 18.7099 6.24655 18.7599 6.29449 18.8098C6.63011 18.9597 7.00171 19.2968 7.40921 19.8214C7.81671 20.3459 8.14036 20.708 8.38012 20.9078C9.53082 21.9068 10.7054 21.9818 11.9041 21.1326C12 20.7829 12.1558 20.4832 12.3715 20.2334C12.5873 19.9837 12.7911 19.8089 12.9829 19.7089C13.1747 19.609 13.5103 19.4592 13.9898 19.2594C12.4075 19.1095 11.125 18.8223 10.1421 18.3977C9.15922 17.9731 8.38009 17.4361 7.80474 16.7867C7.03761 15.8876 6.57012 14.7137 6.40231 13.2651C6.23447 11.8165 6.34236 10.4928 6.72597 9.29397C7.01364 8.54469 7.42118 7.87038 7.94854 7.27092C7.56498 6.02212 7.6369 4.5985 8.1643 3.00004C9.69855 3.09994 11.089 3.64941 12.3356 4.64845C14.7328 3.99907 17.226 3.9741 19.815 4.57352C20.1506 4.32376 20.6661 4.01158 21.3613 3.6369C22.0565 3.26227 22.9315 3.04995 23.9863 3C24.1781 3.54947 24.3099 4.19884 24.3819 4.94812C24.4538 5.6974 24.4178 6.39672 24.274 7.0461C25.3767 8.24494 25.9521 9.8434 26 11.8415C26 13.4399 25.7363 14.7637 25.2089 15.8126C24.6815 16.8616 23.7466 17.7358 22.4041 18.4351C21.4932 18.8847 20.2945 19.1594 18.8082 19.2593C19.4795 19.6089 19.9709 19.9711 20.2825 20.3457C20.5942 20.7204 20.798 21.3073 20.8939 22.1065V24.4668L20.9658 26.7521C21.1096 27.0019 21.2775 27.2142 21.4693 27.389C21.661 27.5639 21.8288 27.6887 21.9727 27.7637C22.1165 27.8386 22.1645 27.951 22.1165 28.1009C22.0685 28.2507 21.8768 28.3256 21.5412 28.3256C20.7261 28.3256 20.0788 28.0259 19.5994 27.4265C19.4555 27.1767 19.3836 26.877 19.3836 26.5273V22.9308C19.3836 22.5312 19.2877 22.244 19.096 22.0691C18.9042 21.8943 18.7124 21.7819 18.5206 21.7319V26.4524C18.5206 27.3016 18.6165 27.851 18.8083 28.1008C19.0001 28.3505 19.1199 28.6003 19.1679 28.8501C19.2159 28.9 19.1799 28.9375 19.06 28.9624C18.9402 28.9874 18.7364 28.95 18.4487 28.8501C17.8254 28.7002 17.3939 28.363 17.1542 27.8385C16.9144 27.314 16.7946 26.752 16.7946 26.1526V21.5072H15.8596V26.1527C15.8596 26.7522 15.7397 27.3267 15.5 27.8761C15.1644 28.5754 14.5411 28.95 13.6302 29C13.4863 28.95 13.4144 28.9001 13.4144 28.8502C13.4624 28.8002 13.6062 28.5505 13.8459 28.1009C13.8939 28.001 13.9538 27.8012 14.0257 27.5015C14.0977 27.2018 14.1336 26.8521 14.1336 26.4525V21.732C13.9418 21.782 13.762 21.8943 13.5942 22.0692C13.4264 22.2441 13.3425 22.5313 13.3425 22.9309V26.5274C13.3425 26.877 13.2706 27.1768 13.1267 27.4266C12.6952 28.026 12.048 28.3257 11.185 28.3257C10.8494 28.3257 10.6576 28.2508 10.6096 28.1009C10.5616 28.001 10.5737 27.9136 10.6456 27.8387C10.7176 27.7637 10.8254 27.6763 10.9693 27.5764C11.1131 27.4765 11.209 27.4015 11.2569 27.3516C11.4487 27.2018 11.5925 27.002 11.6884 26.7522C11.8323 26.5524 11.8682 26.0279 11.7963 25.1787C11.7244 24.3295 11.7124 23.7801 11.7603 23.5303C10.5137 23.9799 9.24318 23.7551 7.94861 22.856C7.56505 22.4563 7.18148 21.8819 6.79792 21.1326C6.51025 20.5831 5.9349 19.9337 5.07192 19.1845Z" fill="currentColor"/>
    <rect fill="none" width="32" height="32"/>
  </symbol>

  <symbol id="play">
    <path d="M26.5593 15.3716C26.6692 15.4357 26.7603 15.5274 26.8237 15.6376C26.8871 15.7479 26.9204 15.8728 26.9204 16C26.9204 16.1272 26.8871 16.2521 26.8237 16.3624C26.7603 16.4726 26.6692 16.5643 26.5593 16.6284L11.2728 25.544C11.1623 25.6078 11.037 25.6414 10.9095 25.6414C10.782 25.6415 10.6566 25.608 10.5461 25.5444C10.4356 25.4807 10.3438 25.3891 10.2798 25.2787C10.2159 25.1684 10.1821 25.0432 10.1819 24.9156V7.08435C10.1821 6.95681 10.2159 6.83159 10.2798 6.72123C10.3438 6.61088 10.4356 6.51928 10.5461 6.45562C10.6566 6.39196 10.782 6.35849 10.9095 6.35855C11.037 6.35862 11.1623 6.39222 11.2728 6.45599L26.5593 15.3716Z" fill="currentColor"/>
    <rect width="32" height="32" fill="none"/>
  </symbol>

  <symbol id="prev">
    <path d="M8.72723 26.1818H7.27268C6.87102 26.1818 6.54541 25.8562 6.54541 25.4545L6.54541 7.27271C6.54541 6.87105 6.87102 6.54544 7.27268 6.54544H8.72723C9.12889 6.54544 9.4545 6.87105 9.4545 7.27271L9.4545 15.0909L23.6362 6.81961C23.7467 6.75584 23.872 6.72224 23.9995 6.72217C24.127 6.72211 24.2524 6.75559 24.3629 6.81924C24.4734 6.8829 24.5652 6.9745 24.6292 7.08485C24.6931 7.19521 24.7269 7.32044 24.7271 7.44797L24.7271 25.2792C24.7269 25.4068 24.6931 25.532 24.6292 25.6424C24.5652 25.7527 24.4734 25.8443 24.3629 25.908C24.2524 25.9716 24.127 26.0051 23.9995 26.005C23.872 26.005 23.7467 25.9714 23.6362 25.9076L9.4545 17.6363L9.4545 25.4545C9.4545 25.8562 9.12889 26.1818 8.72723 26.1818Z" fill="currentColor"/>
    <rect width="32" height="32" fill="none"/>
  </symbol>

  <symbol id="next">
    <path d="M22.5453 6.54544H23.9999C24.4015 6.54544 24.7271 6.87105 24.7271 7.27271V25.4545C24.7271 25.8562 24.4015 26.1818 23.9999 26.1818H22.5453C22.1437 26.1818 21.8181 25.8562 21.8181 25.4545V17.6364L7.63632 25.9076C7.52587 25.9714 7.40059 26.005 7.27305 26.0051C7.14551 26.0051 7.0202 25.9717 6.90968 25.908C6.79917 25.8443 6.70734 25.7527 6.6434 25.6424C6.57946 25.532 6.54567 25.4068 6.54541 25.2793V7.448C6.54567 7.32046 6.57946 7.19523 6.6434 7.08488C6.70734 6.97452 6.79917 6.88292 6.90968 6.81927C7.0202 6.75561 7.14551 6.72213 7.27305 6.7222C7.40059 6.72226 7.52587 6.75587 7.63632 6.81964L21.8181 15.0909V7.27271C21.8181 6.87105 22.1437 6.54544 22.5453 6.54544Z" fill="currentColor"/>
    <rect width="32" height="32" fill="none"/>
  </symbol>

  <symbol id="pause">
    <g>
      <path d="M13.0909 5.81818H8.72727C8.32561 5.81818 8 6.14379 8 6.54545V25.4545C8 25.8562 8.32561 26.1818 8.72727 26.1818H13.0909C13.4926 26.1818 13.8182 25.8562 13.8182 25.4545V6.54545C13.8182 6.14379 13.4926 5.81818 13.0909 5.81818Z"  fill="currentColor"/>
      <path d="M24.0001 5.81818H19.6365C19.2348 5.81818 18.9092 6.14379 18.9092 6.54545V25.4545C18.9092 25.8562 19.2348 26.1818 19.6365 26.1818H24.0001C24.4018 26.1818 24.7274 25.8562 24.7274 25.4545V6.54545C24.7274 6.14379 24.4018 5.81818 24.0001 5.81818Z" fill="currentColor"/>
    </g>
    <rect width="32" height="32" fill="none"/>
  </symbol>
</svg>