<svg width="32" height="32" viewBox="0 0 32 32" xmlns="http://www.w3.org/2000/svg">
  <symbol id="behance">
    <path d="M19.9003 8.936v1.8073h6.5179V8.936H19.9003Zm4.9608 6.0683.0021.0008c.4341.5307.7123 1.1714.8037 1.8509H20.4502c.021-.2605.0697-.5179.1454-.768.0884-.2965.2342-.5728.4291-.8131.2216-.2705.4989-.49.8131-.6436.3988-.1859.8359-.2749 1.2756-.2597.3196-.0248.6407.0188.9421.1279.3013.1091.576.2812.8056.5048Zm-3.6248 6.1426.0022-.0029c-.5409-.6234-.8234-1.4299-.7898-2.2546h8.4204c.0626-.8722-.0137-1.7488-.2262-2.5971-.1968-.797-.5457-1.5485-1.0277-2.213-.4776-.6499-1.1001-1.1796-1.8181-1.547-.8063-.3995-1.6975-.5972-2.5971-.576-.8312-.0106-1.6557.1503-2.4218.4728-.7129.3002-1.3564.7438-1.8906 1.3032-.5342.5593-.9477 1.2225-1.2149 1.9484-.2929.7799-.4401 1.607-.4342 2.44-.0099.8464.1314 1.6877.4175 2.4844.259.7211.6624 1.3819 1.1854 1.9418.5247.5508 1.1647.9787 1.8742 1.2531.7925.3037 1.6357.4533 2.4844.4407 1.1938.0366 2.3722-.2771 3.3898-.9025 1.023-.727 1.7584-1.79 2.0778-3.0037H25.8451c-.1604.4305-.4632.7932-.8582 1.0277-.4935.3318-1.0783.5014-1.6727.4851-.3754.0254-.7521-.0234-1.1086-.1436-.3565-.1201-.6859-.3093-.9693-.5568Zm-10.6247.3389H6.8182V17.0596h3.8611c.6588-.0322 1.3099.1544 1.8516.5309.2491.2186.4426.4933.5644.8016.1218.3082.1684.641.1359.9708.0136.3584-.06.7148-.2145 1.0385-.1336.2605-.3319.4821-.576.6437-.2551.1639-.5385.2788-.8356.3389-.3267.0688-.6597.103-.9935.1018Zm-.2029-6.8422H6.8182V10.8742h3.3214c.3067-.0007.6129.0258.9149.0792.2741.0457.5375.1408.7775.2808.2272.1369.4142.3317.5418.5643.1458.2862.2157.605.2029.9258.0252.2758-.0172.5535-.1233.8092-.1062.2557-.2731.4817-.4861.6585-.4564.3165-1.0037.4751-1.5586.4516Zm.4516-6.5265H3.2727V24.2422h7.816c.7118.0011 1.4207-.0898 2.1091-.2706.6549-.169 1.2742-.4543 1.8284-.8422.5349-.3763.9723-.875 1.2756-1.4545.3295-.6532.4924-1.3777.4742-2.1091.0262-.9167-.2299-1.8193-.7338-2.5855-.539-.7493-1.3276-1.2818-2.224-1.5018.6542-.2896 1.2193-.7485 1.637-1.3294.3869-.6053.58-1.3142.5535-2.032.021-.6532-.1063-1.3027-.3724-1.8997-.2347-.4958-.5968-.9204-1.0494-1.2305-.4935-.3259-1.0459-.5522-1.6262-.6662-.691-.1415-1.395-.2097-2.1004-.2036Z" fill="currentColor"/>
    <rect width="32" height="32" fill="none"/>
  </symbol>

  <symbol id="codepen">
    <path d="m27.9811 12.1636c-.0058-.029-.0102-.0581-.0182-.0865-.0051-.0175-.0109-.0335-.016-.0502-.0051-.0167-.0167-.0502-.0262-.0727-.0094-.0226-.0152-.0335-.0232-.0502s-.0226-.0458-.0349-.0684c-.0124-.0225-.0197-.032-.0291-.048-.0241-.0373-.0506-.073-.0793-.1069-.0165-.0194-.0335-.038-.0509-.056l-.0415-.0407c-.0189-.017-.0383-.0332-.0582-.0487-.0152-.0117-.0305-.0247-.0465-.0357l-.0167-.013-10.9688-7.3135c-.1693-.1131-.3683-.1735-.572-.1735-.2036 0-.4026.0604-.572.1735l-10.968 7.312c-.0058.0036-.0109.0087-.0167.0131-.0058.0044-.0313.0233-.0465.0349-.0153.0116-.0393.032-.0582.0487-.0189.0168-.0276.0262-.0407.04s-.0349.0364-.0516.056c-.0167.0197-.024.0291-.0349.0451s-.0298.0407-.0436.0626c-.0138.0218-.0204.0312-.0291.048-.0087.0167-.024.0451-.0349.0676-.0109.0225-.016.0335-.0233.0502-.0073.0167-.0189.0494-.0269.0727-.008.0233-.0109.0335-.016.0487-.0073.0284-.0131.0575-.0182.0866 0 .0145-.0065.0291-.0087.0443-.0062.0456-.0094.0915-.0095.1375v7.3142c-.0001.045.0031.09.0095.1345 0 .016.0065.0291.0095.0444.0044.0295.0109.0587.0196.0873.0044.016.0095.032.016.0501.0065.0182.016.0517.0262.0728s.016.032.0225.0487c.0065.0167.0225.0451.0356.0691.0131.024.0196.032.0291.0473.0135.0214.0286.0418.0451.0611.0116.016.0225.029.0356.0443.0158.0199.0331.0386.0516.056.0126.0144.0267.0273.0422.0386l.0582.0494c.0153.0131.0327.0226.0451.0349.0124.0124.0095.0095.016.0124l10.9658 7.3185c.1689.1145.3683.1753.5723.1746.2037-.0003.4027-.0605.5724-.1731l10.9673-7.3135c.0058-.0036.0109-.008.0167-.0123.0058-.0044.0313-.0233.0465-.0349.0153-.0117.04-.032.0582-.0495.0182-.0174.0277-.0262.0415-.04.0312-.0313.0601-.0649.0865-.1004.0153-.0203.0298-.0414.0437-.0625.0138-.0211.0203-.0313.0291-.0473.0087-.016.024-.0458.0349-.0691.0109-.0232.016-.0327.0232-.0494.0073-.0167.0182-.0502.0262-.0727.008-.0226.0109-.0335.016-.0502.0073-.0284.0124-.0575.0182-.0866 0-.0145.0065-.0291.008-.0443.007-.0455.0109-.0915.0116-.1375v-7.3127c-.0003-.045-.0035-.09-.0094-.1346 0-.016-.0073-.0283-.0109-.0443l.0007-.0008zm-11.9804 6.275-3.648-2.4393 3.648-2.4393 3.6466 2.4393-3.6466 2.4393zm-1.0312-6.6706-4.4713 2.9906-3.6087-2.4146 8.08-5.3862v4.8102zm-6.3266 4.2313-2.5796 1.7251v-3.4509l2.5796 1.7258zm1.8546 1.2414 4.4712 2.9899v4.8101l-8.08-5.3869 3.6088-2.4138v.0007zm6.5331 2.9899 4.4705-2.9899 3.6095 2.4139-8.08 5.3861v-4.8101zM23.3578 16l2.5797-1.7258v3.4509l-2.5804-1.7258.0007.0007zm-1.8545-1.2407-4.4706-2.9898V6.9578l8.08 5.3862-3.6094 2.4138v.0015z" fill="currentColor"/>
    <rect width="32" height="32" fill="none"/>
  </symbol>

  <symbol id="cv">
    <path d="M25.0969 23.0279h-4.875L15.4998 9.6816h4.3957l2.7643 8.9844 2.7636-8.9844h4.3949L25.0969 23.0279Zm-15.1438.2404c-4.0112 0-7.0439-2.8017-7.0439-6.9034 0-4.1221 3.0327-6.9034 7.0439-6.9034 1.2354-.061 2.4585.2796 3.5003.9745 1.0418.6949 1.8509 1.71 2.3155 2.9049l-3.3395 1.6206c-.174-.5477-.5045-1.0269-.9471-1.3733-.4426-.3464-.9762-.5436-1.5292-.565-.4185-.0075-.8342.0745-1.2211.2411-.3869.1665-.737.414-1.0285.7273-.2915.3132-.5183.6854-.6663 1.0936-.148.4082-.2142.8438-.1943 1.2797-.0196.4358.0468.8712.195 1.2792.1482.408.3751.78.6667 1.093.2916.313.6416.5603 1.0285.7267s.8024.2483 1.2208.2406c.5533-.0217 1.0869-.2194 1.5294-.5663.4425-.347.7727-.8267.9462-1.3749l3.3395 1.6031c-.4698 1.1928-1.2794 2.2065-2.3194 2.9043-1.0401.6978-2.2605 1.046-3.4964.9977Z" fill="currentColor"/>
    <rect width="32" height="32" fill="none"/>
  </symbol>

  <symbol id="github">
    <path d="M5.8903 18.754c.8667.7336 1.4446 1.3693 1.7335 1.9073.3852.7335.7705 1.296 1.1557 1.6872 1.3002.8802 2.5762 1.1003 3.8282.6602-.0482.2445-.0361.7825.0361 1.6138.0723.8314.0362 1.3449-.1083 1.5405-.0963.2445-.2408.4401-.4334.5868-.0481.0489-.1444.1223-.2889.2201-.1444.0978-.2528.1834-.325.2568-.0723.0733-.0844.1589-.0362.2567.0482.1468.2408.2201.5779.2201.8667 0 1.5168-.2935 1.9501-.8803.1445-.2445.2167-.538.2167-.8803V22.4218c0-.3912.0843-.6724.2528-.8436.1686-.1712.3492-.2812.5418-.3301v4.6215c0 .3912-.0361.7335-.1084 1.027-.0722.2934-.1324.489-.1806.5868-.2407.4401-.3852.6846-.4334.7336 0 .0488.0723.0977.2167.1466.9149-.0489 1.5409-.4156 1.878-1.1003.2407-.5379.3612-1.1003.3612-1.6872v-4.548h.9389V25.576c0 .5868.1204 1.137.3612 1.6505.2408.5135.6741.8436 1.3001.9903.289.0979.4936.1345.614.1101.1204-.0245.1565-.0612.1084-.1101-.0482-.2444-.1686-.489-.3612-.7335s-.2889-.7825-.2889-1.6138V21.248c.1926.0489.3852.159.5778.3302.1926.1711.2889.4523.2889.8436v3.5211c0 .3423.0722.6357.2167.8802.4815.5869 1.1316.8803 1.9502.8803.337 0 .5296-.0733.5778-.22.0482-.1467 0-.2568-.1444-.3302-.1445-.0733-.313-.1956-.5056-.3667-.1926-.1712-.3612-.3791-.5057-.6236l-.0722-2.2373V21.6148c-.0963-.7825-.3009-1.3571-.614-1.7239-.313-.3667-.8065-.7213-1.4807-1.0636 1.4927-.0978 2.6966-.3668 3.6115-.807 1.3483-.6846 2.2873-1.5404 2.8169-2.5674.5297-1.0269.7945-2.3229.7945-3.8878-.0481-1.9562-.626-3.5211-1.7334-4.6948.1444-.6358.1805-1.3204.1083-2.054-.0723-.7336-.2047-1.3693-.3973-1.9073-1.0594.0489-1.9382.2568-2.6364.6235-.6982.3668-1.2159.6724-1.5529.917-2.6003-.5869-5.1042-.5624-7.5119.0733-1.252-.9781-2.6484-1.516-4.1893-1.6138-.5297 1.5649-.6019 2.9587-.2167 4.1813-.5297.5869-.939 1.247-1.2279 1.9806-.3853 1.1737-.4936 2.4697-.3251 3.8879.1685 1.4182.6381 2.5674 1.4085 3.4477.5778.6357 1.3603 1.1614 2.3475 1.5771.9871.4157 2.2752.6969 3.8643.8436-.4815.1957-.8186.3424-1.0113.4402-.1926.0978-.3973.2689-.6139.5135-.2167.2445-.3732.5379-.4695.8803-1.2038.8313-2.3836.758-3.5392-.2201-.2408-.1956-.5659-.5501-.9751-1.0636-.4093-.5136-.7825-.8436-1.1195-.9904-.0482-.0489-.2167-.0978-.5056-.1467-.2889-.0489-.5297.0245-.7223.2201-.0963.0978-.0963.1956 0 .2934Z" fill="currentColor"/>
    <rect width="32" height="32" fill="none"/>
  </symbol>

  <symbol id="linkedin">
    <path d="m25.9018 26.0196h-4.4225v-7.4654c0-1.1724-1.3157-2.1447-2.488-2.1447-.2704.0065-.5366.068-.7823.1807-.2458.1128-.466.2745-.6473.4752-.1812.2007-.3197.4362-.4069.6922-.0871.2559-.1213.527-.1003.7966v7.4654h-4.4203V12.752h4.4203v2.2116c.4613-.59 1.0476-1.0706 1.7167-1.4071.6691-.3365 1.4044-.5206 2.1532-.539 1.3207.0027 2.5864.5293 3.5191 1.4643.9328.935 1.4565 2.2019 1.4561 3.5226v8.0152m-15.4792 0H6V12.752h4.4225v13.2676M8.2116 6.1178c.4374 0 .865.1297 1.2287.3727.3637.243.6471.5884.8145.9925.1674.4041.2112.8488.1259 1.2778-.0854.429-.296.8231-.6053 1.1324-.3093.3093-.7034.52-1.1324.6053-.429.0853-.8737.0415-1.2778-.1259-.4041-.1673-.7495-.4508-.9926-.8145C6.1297 9.1945 6 8.7669 6 8.3295c0-.5866.233-1.1491.6478-1.5639.4148-.4148.9773-.6478 1.5639-.6478z" fill="currentColor"/>
    <rect width="32" height="32" fill="none"/>
  </symbol>
</svg>
