<svg xmlns="http://www.w3.org/2000/svg" width="64" height="64" viewBox="0 0 64 64">
  <symbol id="illustrator">
    <path d="M34.053,42.02q-.711-2.077-1.472-4.1t-1.472-4.153H16.281q-.711,2.127-1.447,4.179T13.386,42.02H6.749Q8.723,36.4,10.494,31.636t3.467-9.016q1.7-4.255,3.366-8.1t3.442-7.6h6.093q1.773,3.748,3.444,7.6t3.369,8.1q1.7,4.255,3.5,9.016T40.943,42.02ZM23.694,13.705q-1.165,2.685-2.659,6.534T17.92,28.6H29.469q-1.621-4.508-3.14-8.408T23.694,13.705ZM49.958,42.02H43.829V15.529h6.129Zm.658-34.241A3.514,3.514,0,0,1,49.5,10.514a3.786,3.786,0,0,1-2.634,1.013,3.851,3.851,0,0,1-2.685-1.013,3.514,3.514,0,0,1-1.114-2.735,3.576,3.576,0,0,1,1.114-2.786A3.851,3.851,0,0,1,46.868,3.98,3.786,3.786,0,0,1,49.5,4.993,3.576,3.576,0,0,1,50.616,7.779Z" transform="translate(2.137 9.98)" fill="currentColor"/>
    <rect width="64" height="64" fill="none"/>
  </symbol>

  <symbol id="photoshop">
    <path d="M17.183,5q7.76,0,11.9,2.827t4.137,8.839a12.013,12.013,0,0,1-1.1,5.37A9.282,9.282,0,0,1,28.9,25.685a14.9,14.9,0,0,1-5.139,2.081,32.426,32.426,0,0,1-6.938.668H13.585V40.974H7.11V5.874a32.149,32.149,0,0,1,5.011-.694Q14.87,5,17.183,5Zm.463,5.6q-2.467,0-4.06.154V22.884H16.72a15.905,15.905,0,0,0,7.195-1.31q2.518-1.31,2.518-4.959a5.88,5.88,0,0,0-.668-2.929,4.8,4.8,0,0,0-1.85-1.85,8.7,8.7,0,0,0-2.8-.951A20.175,20.175,0,0,0,17.645,10.6ZM44.266,36.5a8.181,8.181,0,0,0,3.6-.591,2.1,2.1,0,0,0,1.131-2.03,2.632,2.632,0,0,0-1.208-2.21,17.724,17.724,0,0,0-3.983-1.9,31.465,31.465,0,0,1-3.109-1.31,10.611,10.611,0,0,1-2.441-1.619,6.641,6.641,0,0,1-1.619-2.236,7.8,7.8,0,0,1-.591-3.212,7.007,7.007,0,0,1,2.724-5.833,11.7,11.7,0,0,1,7.4-2.133,22.756,22.756,0,0,1,4.522.437,22.009,22.009,0,0,1,3.238.848L52.8,19.749a15.237,15.237,0,0,0-2.621-.848,15.841,15.841,0,0,0-3.7-.385,6.441,6.441,0,0,0-3.083.642,2.109,2.109,0,0,0-1.182,1.979,2.854,2.854,0,0,0,.231,1.182,2.546,2.546,0,0,0,.8.951,8.159,8.159,0,0,0,1.49.874,22.989,22.989,0,0,0,2.261.9,34.451,34.451,0,0,1,3.752,1.619,10.157,10.157,0,0,1,2.544,1.8,6.152,6.152,0,0,1,1.465,2.287,9.131,9.131,0,0,1,.463,3.083,6.642,6.642,0,0,1-2.852,5.833q-2.852,1.979-8.146,1.979a22.3,22.3,0,0,1-5.7-.591,29.577,29.577,0,0,1-3.032-.951l1.079-5.191a28.022,28.022,0,0,0,3.315,1.079A17.1,17.1,0,0,0,44.266,36.5Z" transform="translate(1.779 11.032)" fill="currentColor"/>
    <rect width="64" height="64" fill="none"/>
  </symbol>

  <symbol id="after_efects">
    <path d="M31.221,40.215q-.71-2.075-1.471-4.1t-1.471-4.15H13.463q-.71,2.126-1.446,4.176t-1.446,4.074H3.939Q5.912,34.6,7.682,29.839t3.464-9.009q1.694-4.252,3.363-8.1T17.947,5.14h6.088q1.771,3.745,3.442,7.592t3.366,8.1q1.7,4.252,3.493,9.009t3.771,10.376ZM20.871,11.922q-1.164,2.682-2.657,6.529T15.1,26.8h11.54q-1.62-4.5-3.138-8.4T20.871,11.922ZM38.763,27.106A16.632,16.632,0,0,1,39.8,20.982,12.861,12.861,0,0,1,42.559,16.6a11.418,11.418,0,0,1,3.948-2.632,12.225,12.225,0,0,1,4.555-.886q5.466,0,8.528,3.391T62.652,26.6q0,.506-.025,1.139t-.076,1.139H45.09a6.981,6.981,0,0,0,2.252,4.935,8.558,8.558,0,0,0,5.8,1.746,19.053,19.053,0,0,0,4.074-.4,16.779,16.779,0,0,0,2.91-.86l.81,5.011a9.8,9.8,0,0,1-1.392.531,19.663,19.663,0,0,1-2.025.506q-1.139.228-2.455.38a23.387,23.387,0,0,1-2.682.152A16.232,16.232,0,0,1,46.3,39.835a11.309,11.309,0,0,1-4.252-2.885,11.823,11.823,0,0,1-2.48-4.353A17.773,17.773,0,0,1,38.763,27.106Zm17.765-2.733a8.047,8.047,0,0,0-.354-2.4,5.8,5.8,0,0,0-1.038-1.974,4.907,4.907,0,0,0-1.67-1.316,5.325,5.325,0,0,0-2.354-.481,5.479,5.479,0,0,0-2.48.531,5.653,5.653,0,0,0-1.8,1.392A6.362,6.362,0,0,0,45.7,22.1a10.692,10.692,0,0,0-.557,2.278Z" transform="translate(-2.216 11.769)" fill="currentColor"/>
    <rect width="64" height="64" fill="none"/>
  </symbol>

  <symbol id="premiere_pro">
    <path d="M17.73,5Q25.5,5,29.636,7.829t4.14,8.846a12.021,12.021,0,0,1-1.106,5.374A9.288,9.288,0,0,1,29.456,25.7a14.911,14.911,0,0,1-5.143,2.083,32.45,32.45,0,0,1-6.943.669H14.13V41H7.65V5.874a32.172,32.172,0,0,1,5.014-.694Q15.416,5,17.73,5Zm.463,5.606q-2.469,0-4.063.154V22.9h3.137a15.917,15.917,0,0,0,7.2-1.311q2.52-1.311,2.52-4.963a5.885,5.885,0,0,0-.669-2.931,4.8,4.8,0,0,0-1.851-1.851,8.7,8.7,0,0,0-2.8-.951A20.19,20.19,0,0,0,18.193,10.606Zm35.229,9.1a19.838,19.838,0,0,0-2.134-.54,15.7,15.7,0,0,0-3.163-.283,12.512,12.512,0,0,0-2.186.206,13.138,13.138,0,0,0-1.62.36V41H38.1V15.389a34.208,34.208,0,0,1,4.5-1.26,28.053,28.053,0,0,1,5.991-.591q.617,0,1.44.077t1.646.206q.823.129,1.594.309t1.234.334Z" transform="translate(2.444 11)" fill="currentColor"/>
    <rect width="64" height="64" fill="none"/>
  </symbol>

  <symbol id="indesign">
    <path d="M9.03,7.665h6.354V42.611H9.03ZM26.982,29.349A9.58,9.58,0,0,0,28.9,35.677a6.525,6.525,0,0,0,5.295,2.294,21.039,21.039,0,0,0,2.5-.126,16.822,16.822,0,0,0,1.689-.277V22.44a9.45,9.45,0,0,0-2.143-1.034,8.379,8.379,0,0,0-2.849-.479A5.459,5.459,0,0,0,28.52,23.2,10.821,10.821,0,0,0,26.982,29.349ZM44.48,41.8a36.142,36.142,0,0,1-4.564,1.009,35.414,35.414,0,0,1-5.774.454,15.388,15.388,0,0,1-5.6-.958,11.664,11.664,0,0,1-4.211-2.748,12.1,12.1,0,0,1-2.673-4.337,16.551,16.551,0,0,1-.933-5.723,19.288,19.288,0,0,1,.782-5.673,12.41,12.41,0,0,1,2.294-4.362,10.227,10.227,0,0,1,3.681-2.8,11.973,11.973,0,0,1,4.992-.983,11.415,11.415,0,0,1,3.379.454,15.117,15.117,0,0,1,2.521,1.009V4.489l6.1-1.009Z" transform="translate(5.365 9.367)" fill="currentColor"/>
    <rect width="64" height="64" fill="none"/>
  </symbol>

  <symbol id="xd">
    <path d="M28.177,42.569a70.187,70.187,0,0,0-3.683-6.049q-2.22-3.3-4.642-6.374-1,1.2-2.179,2.87t-2.354,3.4q-1.177,1.736-2.179,3.356t-1.606,2.8H4.28q2.316-4.188,5.354-8.6t6.589-9.239L4.784,7.661H12.34l7.64,11.46,7.673-11.46h7.254L23.6,24.55q3.918,5.113,6.934,9.68t5.079,8.339ZM42.966,29.321a9.57,9.57,0,0,0,1.914,6.322,6.518,6.518,0,0,0,5.289,2.292,21.016,21.016,0,0,0,2.493-.126,16.8,16.8,0,0,0,1.687-.277V22.42a9.439,9.439,0,0,0-2.141-1.033,8.37,8.37,0,0,0-2.846-.479A5.453,5.453,0,0,0,44.5,23.176,10.809,10.809,0,0,0,42.966,29.321ZM60.445,41.763a36.1,36.1,0,0,1-4.559,1.007,35.376,35.376,0,0,1-5.768.453,15.372,15.372,0,0,1-5.591-.957,11.651,11.651,0,0,1-4.206-2.745,12.09,12.09,0,0,1-2.67-4.332,16.533,16.533,0,0,1-.932-5.717,19.267,19.267,0,0,1,.781-5.667,12.4,12.4,0,0,1,2.292-4.357,10.216,10.216,0,0,1,3.677-2.8,11.96,11.96,0,0,1,4.987-.982,11.4,11.4,0,0,1,3.375.453,15.1,15.1,0,0,1,2.519,1.007V4.487l6.1-1.007Z" transform="translate(-1.503 9.388)" fill="currentColor"/>
    <rect width="64" height="64" fill="none"/>
  </symbol>

  <symbol id="figma">
    <path fill-rule="evenodd" clip-rule="evenodd" d="M23.7059 25.8299C20.0998 25.8299 17.1765 28.8162 17.1765 32.5C17.1765 36.1838 20.0998 39.1701 23.7059 39.1701H30.4118V32.5V25.8299H23.7059ZM40.1176 22.585L40.2941 22.585C43.9002 22.585 46.8235 19.5987 46.8235 15.915C46.8235 12.2312 43.9002 9.2449 40.2941 9.2449H33.5882V22.585L40.1176 22.585ZM45.6166 24.2075C48.2568 22.4355 50 19.3832 50 15.915C50 10.4391 45.6545 6 40.2941 6H33.5882H32H30.4118H23.7059C18.3455 6 14 10.4391 14 15.915C14 19.3832 15.7432 22.4355 18.3834 24.2075C15.7432 25.9795 14 29.0318 14 32.5C14 35.9682 15.7432 39.0205 18.3834 40.7925C15.7432 42.5645 14 45.6168 14 49.085C14 54.5723 18.4005 59 23.7498 59C29.1477 59 33.5882 54.5319 33.5882 48.9949V42.415V40.7925V39.8361C35.3123 41.4383 37.6033 42.415 40.1176 42.415H40.2941C45.6545 42.415 50 37.9759 50 32.5C50 29.0318 48.2568 25.9795 45.6166 24.2075ZM40.2941 25.8299L40.1176 25.8299C36.5116 25.8299 33.5882 28.8162 33.5882 32.5C33.5882 36.1838 36.5116 39.1701 40.1176 39.1701H40.2941C43.9002 39.1701 46.8235 36.1838 46.8235 32.5C46.8235 28.8162 43.9002 25.8299 40.2941 25.8299ZM17.1765 49.085C17.1765 45.4013 20.0998 42.415 23.7059 42.415H30.4118V48.9949C30.4118 52.7171 27.4157 55.7551 23.7498 55.7551C20.1325 55.7551 17.1765 52.7575 17.1765 49.085ZM30.4118 22.585H23.7059C20.0998 22.585 17.1765 19.5987 17.1765 15.915C17.1765 12.2312 20.0998 9.2449 23.7059 9.2449H30.4118V22.585Z" fill="currentColor"/>
    <rect width="64" height="64" fill="none"/>
  </symbol>

  <symbol id="html">
    <path d="M7.965,5.728l4.376,49.09l19.645,5.455l19.665-5.452l4.383-49.093H7.965z M46.538,21.784H23.5l0.549,6.166h21.943  L44.34,46.434l-12.341,3.422l-0.01,0.003l-12.331-3.425h-0.001l-0.862-9.667h6.045l0.446,5.015l6.705,1.812l0.009-0.003l6.712-1.812  l0.699-7.809H18.544l-1.625-18.207h30.158L46.538,21.784z" fill="currentColor"/>
    <rect fill="none" width="64" height="64"/>
  </symbol>

  <symbol id="css">
    <path d="M26.439,55.77l23.902-7.933l7.932-39.607H13.5l-1.703,8.837h35.882l-1.118,5.643H10.626l-1.759,8.837h35.884L42.78,41.662  L28.3,46.399l-12.512-4.737l0.854-4.418H7.805L5.728,47.837L26.439,55.77" fill="currentColor"/>
    <rect fill="none" width="64" height="64"/>
  </symbol>

  <symbol id="bootstrap">
    <path fill-rule="evenodd" clip-rule="evenodd" d="M15.0468 9C11.7374 9 9.28858 11.8839 9.39824 15.0113C9.50348 18.016 9.36675 21.9074 8.38278 25.0809C7.39531 28.2633 5.72645 30.2799 3 30.5388V33.4612C5.72645 33.7206 7.39531 35.7363 8.38267 38.9191C9.36675 42.0926 9.50336 45.984 9.39813 48.9887C9.28847 52.1157 11.7373 55 15.0472 55H48.9576C52.267 55 54.7154 52.1161 54.6057 48.9887C54.5005 45.984 54.6372 42.0926 55.6212 38.9191C56.6087 35.7363 58.2734 33.7198 61 33.4612V30.5388C58.2735 30.2794 56.6088 28.2637 55.6212 25.0809C54.6371 21.9079 54.5005 18.016 54.6057 15.0113C54.7154 11.8843 52.267 9 48.9576 9H15.0463H15.0468ZM42.3221 37.316C42.3221 41.6224 39.0957 44.2341 33.7415 44.2341H24.6271C24.3664 44.2341 24.1163 44.131 23.932 43.9474C23.7476 43.7639 23.644 43.5149 23.644 43.2554V20.7447C23.644 20.4852 23.7476 20.2362 23.932 20.0527C24.1163 19.8691 24.3664 19.766 24.6271 19.766H33.6896C38.1541 19.766 41.0841 22.1737 41.0841 25.8703C41.0841 28.4648 39.113 30.7876 36.6019 31.1945V31.3298C40.0203 31.7032 42.3221 34.0603 42.3221 37.316ZM32.7477 22.8685H27.5508V30.1769H31.9278C35.3116 30.1769 37.1773 28.8203 37.1773 26.3956C37.177 24.1233 35.5729 22.8685 32.7477 22.8685ZM27.5508 33.0766V41.1305H32.9389C36.4619 41.1305 38.328 39.7231 38.328 37.0782C38.328 34.4332 36.4096 33.0762 32.7123 33.0762H27.5508V33.0766Z" fill="currentColor"/>
    <rect width="64" height="64" fill="none"/>
  </symbol>

  <symbol id="tailwind">
    <path d="M32 14C23.9998 14 18.9999 18.0001 16.9996 25.9995C20 21.9994 23.5001 20.4999 27.4998 21.4996C29.7822 22.07 31.4133 23.7263 33.2192 25.559C36.1603 28.5444 39.5643 31.9996 47.0004 31.9996C54.9999 31.9996 60.0005 27.9995 62 19.9994C59.0004 23.9995 55.5003 25.4997 51.4998 24.5C49.2182 23.9297 47.5871 22.2733 45.7812 20.4407C42.8401 17.4552 39.4353 14 32 14ZM16.9996 31.9996C9.00013 31.9996 3.9995 35.9997 2 43.9999C4.99963 39.9998 8.49969 38.4996 12.5002 39.5C14.7818 40.0711 16.4129 41.7267 18.2188 43.5586C21.1599 46.544 24.5647 50 32 50C40.0003 50 45.0001 45.9999 47.0004 37.9998C44 41.9998 40.4999 43.5001 36.5002 42.4997C34.2178 41.93 32.5867 40.273 30.7808 38.441C27.8397 35.4556 24.4357 31.9996 16.9996 31.9996Z" fill="currentColor"/>
    <rect width="64" height="64" fill="none"/>
  </symbol>

  <symbol id="sass">
    <path d="M 53.7 34.9 C 51.6 34.9 49.7 35.4 48.2 36.1 C 47.6 35 47.1 34.1 47 33.3 C 46.9 32.4 46.8 32 46.9 30.9 C 47 29.9 47.6 28.5 47.6 28.3 C 47.6 28.3 47.5 27.8 46.3 27.8 C 45 27.8 44 28 43.8 28.3 L 43.4 30.1 C 43.1 31.2 41 35.1 39.7 37.1 C 39.3 36.3 38.9 35.6 38.9 35.1 C 38.8 34.2 38.7 33.7 38.8 32.7 C 38.9 31.6 39.5 30.3 39.5 30.2 C 39.5 30.1 39.4 29.5 38.2 29.5 C 36.9 29.5 35.9 29.8 35.8 30.1 L 35.3 31.9 L 31.3 40.8 L 30.4 42.9 C 30.1 43.3 30.4 42.9 30.4 43 L 30 43.6 L 29.6 44.2 C 29.6 44.2 29.4 43.3 29.7 42.3 C 30 40.1 31.1 36.5 31.1 36.3 C 31.1 36.3 31.3 35.7 30.4 35.4 C 29.6 35 29.3 35.6 29.2 35.6 L 29.1 35.7 C 29.1 35.7 30 31.7 27.2 31.7 C 25.6 31.7 23.1 33.7 21.9 35.4 L 18 37.6 L 16 38.7 L 15.9 38.5 C 12.5 34.9 6.3 32.4 6.6 27.6 C 6.6 25.9 7.3 21.3 18.4 15.7 C 27.7 11.1 34.9 12.4 36.2 15.2 C 38.1 19.2 32.4 26.6 22.8 27.6 C 19.1 28 17.3 26.6 16.8 26.1 C 16.3 25.5 16.2 25.5 16 25.6 C 15.7 25.8 15.9 26.2 16 26.6 C 16.3 27.3 17.5 28.6 19.5 29.3 C 21.2 29.9 25.5 30.2 30.6 28.2 C 36.4 26 40.9 19.8 39.6 14.5 C 38.2 9.2 29.4 7.5 21.2 10.4 C 16.2 12.2 10.9 15 7.1 18.6 C 2.5 22.8 1.8 26.6 2 28.1 C 3.2 33.6 10.7 37.3 13.7 39.8 L 13.4 40.1 C 11.9 40.9 6 43.9 4.6 47.1 C 3 50.7 4.8 53.3 6.1 53.7 C 10 54.8 14.1 52.8 16.2 49.7 C 18.3 46.4 18.1 42.2 17.1 40.3 L 17 40.2 L 18.3 39.5 L 20.4 38.3 C 20.1 39.4 19.8 40.5 19.7 42.3 C 19.5 44.3 20.4 47 21.5 48 C 21.9 48.5 22.5 48.5 22.9 48.5 C 24.2 48.5 24.8 47.4 25.5 46.2 L 27 42.9 C 27 42.9 26 47.7 28.5 47.7 C 29.3 47.7 30.3 46.6 30.6 46 L 30.7 45.9 L 30.8 45.7 L 33.2 41.4 L 36.1 34.7 L 36.7 37 C 36.9 38 37.5 38.9 37.9 39.8 L 37.4 40.7 L 36.5 41.8 C 35.3 43.2 33.8 44.9 33.7 45.3 C 33.4 45.9 33.4 46.3 33.9 46.6 C 34.2 46.9 34.8 46.9 35.4 46.9 L 37.5 46.4 L 39.5 45.3 C 40.7 44.5 41.4 43.2 41.3 41.6 C 41.3 40.8 40.9 39.8 40.6 39 L 40.9 38.5 C 42.8 35.8 44.2 32.8 44.2 32.8 L 44.8 35.3 L 45.8 37.6 C 44.4 38.7 43.3 40.2 42.7 41.8 C 42 43.8 42.4 44.6 43.5 44.9 C 44 45 44.7 44.8 45.1 44.5 C 45.7 44.4 46.4 44 47.1 43.6 C 48.3 42.6 49.5 41.5 49.3 39.8 C 49.3 39.1 49.1 38.3 48.9 37.6 C 50.3 37 52.3 36.7 54.6 37 C 59.9 37.6 60.9 40.9 60.7 42.2 C 60.5 43.6 59.4 44.3 59.1 44.5 L 58.6 45 C 58.7 45.2 58.8 45.2 59.2 45.2 C 59.5 45.1 61.9 44 62 41.6 C 62.1 38.3 59.1 34.8 53.7 34.9 Z M 13.4 48.4 C 11.8 50.3 9.3 51.1 8.2 50.4 C 7.2 49.8 7.5 47 9.8 45 C 11.1 43.8 12.7 42.6 13.7 41.9 L 14.8 41.4 L 14.9 41.2 L 15.3 41.1 C 16 43.9 15.3 46.4 13.4 48.4 Z M 26 39.8 C 25.5 41.4 24.2 45.1 23.5 44.9 C 22.8 44.8 22.4 41.8 23.2 39 C 23.7 37.6 24.8 36 25.3 35.3 C 26.3 34.2 27.3 33.9 27.6 34.3 C 27.9 34.9 26.4 38.9 26 39.8 Z M 36.5 44.9 L 35.9 45 V 44.8 L 37.8 42.8 L 38.8 41.5 V 41.6 C 38.8 43.2 37.2 44.4 36.5 44.9 Z M 44.4 43 C 44.2 42.9 44.3 42.4 44.9 41.1 C 45.1 40.5 45.7 39.6 46.7 38.8 L 46.9 39.8 C 46.9 41.9 45.4 42.6 44.4 43 Z" fill="currentColor"/>
    <rect width="64" height="64" fill="none"/>
  </symbol>

  <symbol id="js">
    <path d="M5.728,5.728v52.546h52.543V5.728H5.728z M33.878,46.541c0,5.117-3.023,7.607-7.396,7.607c-3.951,0-6.244-2.042-7.405-4.51  l0,0l4.018-2.436c0.777,1.377,1.365,2.537,3.058,2.537c1.406,0,2.563-0.635,2.563-3.103V30.122h5.162V46.541z M45.527,54.031  c-4.583,0-7.545-2.064-8.991-4.926l0,0l4.026-2.326c1.054,1.725,2.434,2.878,4.866,2.878c2.047,0,3.234-0.905,3.234-2.313  c0-1.693-1.223-2.296-3.48-3.285l-1.233-0.531c-3.564-1.516-5.927-3.419-5.927-7.439c0-3.706,2.821-6.409,7.23-6.409  c3.14,0,5.395,0.975,7.018,3.833l-3.851,2.478c-0.847-1.516-1.76-2.113-3.175-2.113c-1.445,0-2.362,0.919-2.362,2.113  c0,1.479,0.917,2.079,3.033,2.994l1.232,0.532c4.198,1.796,6.561,3.634,6.561,7.757C53.712,51.718,50.221,54.031,45.527,54.031z" fill="currentColor"/>
    <rect fill="none" width="64" height="64"/>
  </symbol>
  
  <symbol id="jquery">
    <g>
      <path d="m9.4 18c-4.7 6.7-4.1 15.5-.6 22.6 1.8 3 1.8 3.1 1.9 3.2 1.3 2 2.5 3.2 2.7 3.5 0 0 0 0 0 0 1.1 1.2 1.3 1.3 1.5 1.5 2.3 2 2.5 2.1 2.7 2.3 1 .7 1.1.8 1.1.8 1.3.9 1.6 1.1 2 1.3.9.5 1 .5 1.2.6 1.7.9 1.8.9 1.8.9.3.1.7.3 1 .4.3.1.6.2.9.3.4.1.7.2 1 .3.3.1.7.2 1 .3 23.3 4.4 29.9-13.3 29.9-13.3-5.5 7.2-15.3 9.1-24.7 6.9-2.3-.7-2.3-.7-2.4-.7-.3-.1-.6-.2-.9-.3-1.4-.6-1.7-.7-2-.9-.2-.1-.4-.2-.6-.3-.348-.164-.83-.421-1.2-.6-.4-.2-.7-.4-1-.6-.5-.3-.7-.4-1-.6-2.2-1.7-2.5-1.9-2.7-2.1-.512-.427-.764-.665-1.1-1-1-1-1.2-1.2-1.4-1.5-1.5-1.7-1.5-1.8-1.6-1.9-.2-.2-.4-.5-.6-.7-5.1-7.1-7-16.8-2.9-24.8" fill="currentColor"/>
      <path d="m23.93 12.3c-3.39 4.88-3.21 11.41-.56 16.57.44.86.94 1.7 1.5 2.5.51.73 1.07 1.59 1.75 2.18.24.27.5.53.76.79.07.07.13.13.2.2.25.25.51.49.78.72.01.01.02.02.03.03 0 0 .01 0 .01.01.29.26.6.51.91.75.07.05.14.11.21.16.31.24.63.47.95.69.01.01.02.01.03.02.14.1.29.19.43.29.07.05.14.09.21.14.23.15.47.29.7.43.03.02.07.04.1.06.21.12.41.23.62.35.07.04.15.08.22.12.14.08.29.15.44.23.02.01.04.02.07.03.3.15.6.29.91.42.07.03.13.05.2.08.25.1.49.21.74.3.11.04.21.08.32.12.23.08.45.16.68.24.1.03.21.07.31.1.33.1.65.23.99.29 17.52 2.9 21.57-10.58 21.57-10.58-3.65 5.25-10.71 7.75-18.24 5.79-.33-.09-.66-.18-.99-.29-.1-.03-.2-.06-.3-.1-.23-.08-.46-.16-.69-.24-.11-.04-.21-.08-.31-.12-.25-.1-.5-.2-.75-.3-.07-.03-.14-.05-.2-.09-.31-.13-.61-.28-.91-.42-.15-.08-.31-.16-.46-.23-.09-.05-.18-.09-.26-.14-.2-.11-.39-.22-.58-.33-.05-.03-.09-.05-.14-.08-.24-.14-.47-.28-.7-.43-.07-.05-.14-.09-.21-.14-.15-.1-.31-.2-.45-.3-.32-.22-.64-.46-.95-.69-.07-.06-.14-.11-.21-.17-3.3-2.6-5.91-6.16-7.16-10.19-1.3-4.18-1.02-8.87 1.24-12.68" fill="currentColor"/>
      <path d="M36.1831 8.06188C34.1825 11.0026 33.986 14.6547 35.3742 17.9027C36.838 21.35 39.8378 24.0547 43.3387 25.3368C43.483 25.3904 43.6273 25.4384 43.7737 25.4878C43.8376 25.507 43.9008 25.529 43.9655 25.5482C44.1716 25.6127 44.3764 25.6882 44.5895 25.728C54.2643 27.5951 56.8883 20.7691 57.587 19.7645C55.2882 23.0704 51.4252 23.8639 46.6854 22.7148C46.3111 22.6237 45.8995 22.4887 45.5386 22.3611C45.0759 22.1963 44.6199 22.0085 44.1768 21.796C43.3351 21.3922 42.5329 20.9018 41.7892 20.3406C37.5477 17.1263 34.9129 10.9941 37.6806 6" fill="currentColor"/>
    </g>
    <rect width="64" height="64" fill="none"/>
  </symbol>

  <symbol id="ts">
    <path d="m54.44 6h-44.34c-2.26 0-4.1 1.84-4.1 4.1v44.34c0 2.26 1.84 4.1 4.1 4.1h44.34c2.26 0 4.1-1.84 4.1-4.1v-44.34c0-2.26-1.84-4.1-4.1-4.1zm-17.55 46.81v-5.67c1.03.87 2.15 1.51 3.35 1.94 1.21.44 2.43.65 3.65.65.73 0 1.35-.06 1.89-.19.54-.13.99-.31 1.35-.54.36-.23.63-.51.81-.82.17-.31.26-.66.26-1.02 0-.49-.14-.94-.42-1.33-.29-.39-.67-.75-1.16-1.08-.49-.33-1.08-.65-1.75-.95-.72-.33-1.45-.64-2.18-.94-1.99-.83-3.47-1.84-4.44-3.03-.98-1.19-1.46-2.63-1.46-4.32 0-1.33.26-2.46.79-3.41.53-.95 1.26-1.74 2.17-2.35.92-.61 1.98-1.07 3.19-1.36 1.2-.29 2.48-.43 3.83-.43 1.32 0 2.49.08 3.52.24 1.02.16 1.96.4 2.82.73v5.3c-.44-.3-.9-.56-1.39-.78-.5-.22-1.02-.41-1.55-.56-.53-.14-1.06-.25-1.59-.32-.52-.08-1.02-.11-1.49-.11-.65 0-1.25.06-1.78.19-.53.12-.98.29-1.34.52-.37.22-.65.49-.86.8-.2.32-.3.67-.3 1.06 0 .42.12.8.34 1.14.22.34.54.66.96.96.41.3.91.59 1.5.88.59.29 1.26.59 2.01.9 1.01.42 1.93.87 2.74 1.35.81.48 1.5 1.02 2.08 1.62.57.6 1.03 1.3 1.33 2.07.31.77.46 1.67.46 2.7 0 1.42-.27 2.61-.81 3.57-.53.96-1.26 1.74-2.19 2.34-.92.59-1.99 1.02-3.21 1.28-1.23.26-2.52.39-3.88.39-1.39 0-2.72-.12-3.98-.35-1.26-.24-2.35-.59-3.27-1.07zm-2.16-19.77h-7.29v20.78h-5.77v-20.78h-7.26v-4.67h20.32v4.67z" fill="currentColor"/>
    <rect width="64" height="64" fill="none"/>
  </symbol>

  <symbol id="react">
      <path d="m50.63 22.95c-.6-.21-1.22-.4-1.86-.59.11-.43.2-.85.29-1.27 1.41-6.84.49-12.35-2.66-14.17-3.02-1.74-7.95.07-12.93 4.41-.48.42-.96.86-1.44 1.32-.32-.31-.64-.6-.96-.88-5.22-4.64-10.46-6.59-13.6-4.77-3.02 1.75-3.91 6.93-2.64 13.41.12.63.27 1.26.43 1.92-.74.21-1.46.43-2.14.67-6.12 2.13-10.03 5.48-10.03 8.95 0 3.58 4.2 7.18 10.57 9.36.51.17 1.02.33 1.56.49-.17.7-.33 1.39-.45 2.06-1.21 6.37-.27 11.43 2.74 13.16 3.1 1.79 8.32-.05 13.39-4.49.4-.35.8-.72 1.21-1.11.52.5 1.05.98 1.56 1.43 4.91 4.23 9.77 5.93 12.77 4.2 3.1-1.8 4.11-7.23 2.8-13.84-.1-.5-.22-1.02-.35-1.55.37-.1.73-.22 1.08-.33 6.63-2.2 10.94-5.75 10.94-9.38 0-3.48-4.04-6.85-10.28-9l0 0zm-1.44 16.04c-.32.1-.64.2-.97.3-.73-2.32-1.72-4.78-2.93-7.33 1.15-2.48 2.1-4.92 2.81-7.22.59.17 1.17.35 1.72.54 5.35 1.84 8.62 4.57 8.62 6.67 0 2.24-3.53 5.14-9.25 7.04l0 0zm-2.38 4.7c.58 2.92.66 5.57.28 7.63-.35 1.85-1.04 3.09-1.89 3.59-1.82 1.05-5.72-.32-9.93-3.94-.48-.41-.97-.85-1.45-1.33 1.63-1.78 3.26-3.85 4.85-6.15 2.79-.24 5.44-.65 7.83-1.21.12.48.22.94.31 1.4l0 0zm-24.02 11.04c-1.78.63-3.2.65-4.06.15-1.82-1.05-2.58-5.11-1.55-10.56.12-.63.26-1.27.42-1.92 2.37.52 4.99.9 7.79 1.13 1.6 2.25 3.28 4.32 4.96 6.13-.37.35-.74.69-1.1 1.01-2.24 1.96-4.49 3.36-6.47 4.05l0 0zm-8.34-15.76c-2.82-.96-5.15-2.22-6.74-3.58-1.44-1.23-2.16-2.45-2.16-3.44 0-2.11 3.14-4.79 8.38-6.62.64-.22 1.3-.43 1.99-.63.72 2.35 1.67 4.81 2.82 7.3-1.16 2.53-2.12 5.03-2.85 7.41-.49-.15-.97-.29-1.43-.45l0 0zm2.8-19.03c-1.09-5.55-.37-9.74 1.45-10.8 1.94-1.12 6.21.48 10.72 4.48.29.26.58.52.87.8-1.68 1.8-3.34 3.86-4.93 6.1-2.72.25-5.32.66-7.72 1.2-.15-.61-.28-1.2-.4-1.78l0 0zm24.94 6.16c-.57-.99-1.16-1.95-1.76-2.89 1.84.23 3.61.54 5.27.92-.5 1.6-1.12 3.27-1.85 4.98-.52-1-1.08-2-1.66-3.01l0 0zm-10.17-9.91c1.14 1.24 2.28 2.61 3.4 4.11-1.13-.05-2.28-.08-3.43-.08-1.14 0-2.28.03-3.4.08 1.12-1.48 2.27-2.86 3.43-4.11l0 0zm-10.24 9.92c-.57.99-1.12 1.99-1.63 2.99-.72-1.71-1.33-3.38-1.84-5 1.65-.37 3.41-.67 5.24-.9-.61.95-1.2 1.92-1.77 2.91l0 0 0 0zm1.83 14.76c-1.89-.21-3.68-.5-5.33-.86.51-1.65 1.14-3.36 1.87-5.11.52 1 1.06 2 1.64 2.99l0 0c.59 1.01 1.19 2 1.82 2.97l0 0zm8.48 7.01c-1.17-1.26-2.34-2.66-3.48-4.16 1.11.04 2.24.07 3.38.07 1.18 0 2.35-.03 3.49-.08-1.13 1.53-2.26 2.93-3.4 4.18l0 0zm11.79-13.06c.77 1.76 1.43 3.47 1.94 5.09-1.68.38-3.49.69-5.4.92.6-.95 1.19-1.93 1.77-2.94.59-1.02 1.15-2.04 1.68-3.07l0 0zm-3.82 1.83c-.9 1.57-1.83 3.06-2.77 4.48-1.72.12-3.49.19-5.3.19-1.8 0-3.55-.06-5.24-.17-.98-1.43-1.93-2.93-2.83-4.48l0 0c-.9-1.55-1.72-3.11-2.47-4.66.75-1.56 1.57-3.12 2.46-4.66l0 0c.89-1.55 1.83-3.04 2.8-4.46 1.72-.13 3.48-.2 5.26-.2l0 0c1.79 0 3.56.07 5.28.2.96 1.41 1.89 2.9 2.79 4.45.91 1.57 1.74 3.12 2.49 4.64-.75 1.55-1.58 3.12-2.48 4.68l0 0zm5.1-27.59c1.94 1.12 2.69 5.62 1.47 11.53-.08.38-.17.76-.26 1.15-2.4-.55-5-.97-7.73-1.22-1.59-2.26-3.23-4.32-4.89-6.1.45-.43.89-.84 1.33-1.22 4.27-3.72 8.26-5.18 10.08-4.13l0 0zm-13.17 17.72c2.85 0 5.16 2.31 5.16 5.16 0 2.85-2.31 5.16-5.16 5.16-2.85 0-5.16-2.31-5.16-5.16 0-2.85 2.31-5.16 5.16-5.16l0 0z" fill="currentColor"/>
      <rect fill="none" width="64" height="64"/>
  </symbol>

  <symbol id="redux">
    <path d="m42.03 41.92c-3.66 7.57-10.06 12.66-18.53 14.34-1.3.32-2.63.48-3.97.47-4.88 0-9.34-2.06-11.51-5.43-2.91-4.49-3.9-14.01 5.7-21.05.2 1.07.59 2.55.86 3.42-1.89 1.42-3.43 3.25-4.51 5.36-1.79 3.55-1.59 7.11.53 10.39 1.46 2.21 3.78 3.56 6.76 3.97 3.72.48 7.49-.24 10.79-2.06 5.16-2.75 8.6-6.03 10.86-10.52-.64-.67-1.01-1.54-1.06-2.47-.03-.99.32-1.96.99-2.69.67-.73 1.6-1.16 2.58-1.19h.14c.95-0 1.87.36 2.57 1.02.69.66 1.11 1.57 1.16 2.53.05.96-.26 1.91-.88 2.65-.62.74-1.49 1.2-2.44 1.3l-.01-.06zm11.65-8.31c4.96 5.69 5.09 12.4 3.18 16.29-1.79 3.55-6.5 7.11-12.84 7.11-2.96-.06-5.87-.77-8.53-2.08.93-.67 2.25-1.74 2.98-2.42 2.05.9 4.26 1.38 6.5 1.41 4.1 0 7.21-1.94 9.06-5.49 1.19-2.35 1.26-5.09.13-7.91-1.38-3.54-3.84-6.55-7.02-8.58-4.17-2.85-9.09-4.36-14.11-4.36h-1.19c-.28.65-.73 1.21-1.3 1.61-.57.4-1.25.63-1.95.67h-.13c-.97-.01-1.89-.4-2.57-1.09-.68-.69-1.08-1.62-1.09-2.6-.02-.98.35-1.92 1.01-2.63.66-.71 1.57-1.14 2.53-1.18h.13c.67 0 1.33.19 1.9.54.57.35 1.04.86 1.35 1.47h1.06c8.45 0 15.87 3.28 20.89 9.25zm-33.62 9.46c-.07-.68.09-1.37.46-1.95-3.71-6.5-5.69-14.74-2.64-23.32 2.18-6.45 7.67-10.8 13.63-10.8 6.35 0 12.97 5.63 13.76 16.49-.99-.33-2.44-.82-3.31-1-.22-3.55-3.18-12.4-10.19-12.27-2.51.07-6.22 1.28-8.13 3.75-2.36 2.96-3.73 6.59-3.92 10.39-.45 5.2.76 10.42 3.44 14.88.15-.05.31-.08.46-.07h.13c.98-.02 1.93.36 2.64 1.05.71.69 1.11 1.64 1.13 2.63.02 1-.36 1.96-1.04 2.67-.68.72-1.62 1.13-2.6 1.15h-.13c-.96-0-1.88-.38-2.57-1.06-.69-.67-1.1-1.59-1.14-2.56v.01z" fill="currentColor"/>
    <rect width="64" height="64" fill="none"/>
  </symbol>

  <symbol id="zustand">
    <g>
      <path d="m60.9 34.9c.1-1.9.1-3.8 0-5.7-.3-2.6-.9-5.2-1.9-7.6 0-.2-.1-.3-.1-.5-.3-.7-.4-1.4-.9-2-.6-1.2-1.2-2.4-2-3.5-2.7-4-6.3-7.2-10.6-9.3-3.9-2.1-8.2-3.2-12.6-3.3-2.6-.1-5.3.1-7.8.8-2 .5-4 1.1-5.9 2.2-1.6 1-3.3 1.9-4.8 3.1-2.2 1.6-4.1 3.5-5.7 5.7-1.2 1.6-2.3 3.3-3 5.2-.3.8-.6 1.6-.9 2.4-.2.4-.4.9-.6 1.4-.3.4-.2.7 0 1-.4 1.2-.6 2.4-.8 3.6-.4 2.7-.4 5.4 0 8.1.3 2 .7 4.1 1.7 6 .6 1.1 1 2.4 1.5 3.6.1.4.4.6.8.7 0 .1 0 .1 0 .1.1 0 .1 0 .1 0 .1 0 .1 0 .1 0 1.6 2.6 3.6 4.9 5.9 6.9v0h0c2.8 2.5 6 4.3 9.6 5.5 2.9.9 5.9 1.4 9 1.5.7.4 1.5.1 2.2-.1 0 0 .1 0 .1 0l0 0 0 0c.6 0 1.1-.1 1.6-.1.8-.1 1.5-.2 2.2-.4 1.4-.3 2.7-.6 4-1.1.5-.2 1-.4 1.5-.6.5-.2 1-.5 1.4-.7 2.1-1 4-2.2 5.7-3.8.4-.3.7-.6 1.1-1 .1 0 .2-.1.2-.1.1-.2.3-.3.4-.4 1-.2 1.2-1.1 1.6-1.8.2-.1.3-.3.4-.4.8-.8 1.5-1.7 2.1-2.7.1-.2.2-.4.3-.7 1-1.4 1.8-3 2.4-4.6.3-.8.5-1.7.8-2.6.1-.5.3-1 .4-1.6.3-1.1.4-2.1.5-3.2zm-53.6 9.9c0-.1 0-.2-.1-.2 0-.1-.1-.2-.1-.3-.3-.7-.6-1.3-.9-2-.2-.9-.6-1.7-.9-2.5-.1-.6-.2-1.1-.2-1.6.3-.4.1-.8 0-1.3-.1-.5-.2-1.1-.3-1.7-.3-3.7-.1-7.3 1.1-10.8.5-1.5.9-3.1 1.8-4.4 1.6-2.8 3.3-5.5 5.9-7.6.3-.2.7-.5.7-1 .5-.6 1-1.1 1.6-1.5 1-.7 2-1.3 3.1-1.9.4-.2.8-.4 1.2-.6.8-.3 1.6-.6 2.3-1 .1 0 .2 0 .2 0 .2-.1.5-.2.7-.2 3.1-.8 6.2-1.5 9.5-1.2.3.1.7 0 1-.1.6 0 1.2.1 1.8.2 1.7.2 3.4.5 5 .9.2.1.4.1.6.2.1.1.3.2.5.2.5.2 1.1.5 1.7.7 1.4.6 2.8 1.5 4.1 2.4 2.4 1.6 4.4 3.6 6.2 5.9 1.1 1.5 2.1 3 3 4.5.1.5.4.9.6 1.3.7 1.6 1.2 3.2 1.6 4.8.5 1.8.8 3.6.8 5.4.1 2.6-.3 5.1-.9 7.7-.3 1.5-.8 3-1.4 4.4-.4.8-.9 1.5-1.2 2.3 0 .1-.1.2-.2.3 0 .2-.1.3-.2.5-.6.7-1.2 1.3-1.5 2.2 0 0-.1.1-.1.1-.1.1-.2.3-.3.4-1.2 1.5-2.7 2.7-4.1 4.1-.2.1-.3.3-.4.4-.2.1-.4.3-.5.4-.4.2-.8.5-1.1.7-1.4.7-2.6 1.6-4.1 2.2-1 .4-2 .8-3.1 1.2-.2.1-.5.2-.8.3-.5.2-1 .3-1.6.4-1.5.2-2.9.5-4.4.7-.3-.2-.7-.1-1 0-1.1 0-2.2-.1-3.3-.1-.2 0-.4 0-.5 0-.6-.1-1.2-.2-1.8-.3-1.5-.6-3.2-.7-4.7-1.4-1.7-.8-3.6-1.4-5.2-2.5-1.2-.9-2.4-1.8-3.6-2.6-.2-.5-.7-.6-1-1-2.2-2-3.9-4.5-5.5-7v0z" fill="currentColor"/>      
      <path d="m13.2 38.9c-.8 1.1-1.9 1.9-3.1 2.5-.1.1-.3.2-.4.1-.2 0-.3-.1-.4-.2-.3-.3-.1-.7.1-.9 1.1-1.1 2.4-1.4 3.8-1.5zm13.4 11.3c-.2-.1-.3-.1-.4 0-.1 0-.2.1-.3.2-.7.8-1.4 1.8-1.9 2.8-.2.4.1.6.3.8.3.3.5 0 .7-.2.8-.9 1.2-2.1 1.7-3.3 0-.1 0-.3-.1-.3v0zm28.8-24.2c0 0 .1-.1.1-.1.4-.4.2-.6-.1-.8-.4-.1-.7 0-1 .1-1.2.3-2.2.9-3.2 1.6 1.4.1 2.9-.1 4.2-.8zm-26.4 27.7c0-.2 0-.5-.3-.6-.4-.1-.4.3-.5.5-.3.9-.6 1.8-.8 2.7-.1.4 0 .8.4.9.5.1.5-.3.6-.5.5-.8.4-1.7.6-2.4 0-.3 0-.4 0-.6zm-19.9-23.7c-.4-.1-.7 0-.9.4-.1.5.3.6.6.7 1.3.3 2.6.7 4 .4-1.2-.7-2.4-1.3-3.7-1.5h0zm32.5 17.8c0-.1-.2-.1-.3-.1-.1.1-.1.2 0 .4.1 1.3.7 2.4 1.2 3.5.1.2.3.5.6.4.3 0 .3-.4.3-.9-.4-1-1.1-2.2-1.8-3.3h0zm11.7-27.3c.1-.2.5-.3.4-.6-.2-.4-.7-.3-.9-.2-1.3.8-2.4 1.7-3.1 3 1.3-.7 2.6-1.2 3.6-2.2zm-12.2-11c-.4 0-.7.4-.8.8-.2.9-.5 1.7-.4 2.6 0 .2-.3.5.1.6.3.1.4-.2.5-.4.5-.8.9-1.7.9-2.8-.1-.2.2-.7-.3-.8zm-1.5 45c.2.3.3.6.6.4.2-.2.5-.4.3-.8-.3-.9-.6-1.9-.8-2.9-.1-.3-.2-.5-.5-.4-.3 0-.3.2-.3.7.4.8.1 2 .7 3zm-29.9-33.2c-.1.3.2.4.3.6.8.9 2 1.1 2.9 1.9 0 0 .1 0 .1 0 0 0 .1 0 .1 0 0 0 .1 0 .1 0 0 0 0 0 .1-.1.1-.1 0-.3-.2-.4-.7-.7-1.5-1.4-2.3-2.1-.1-.1-.3-.2-.5-.2-.3 0-.5.1-.6.3zm13-11.3c0-.1-.1-.1-.2-.1-.1 0-.1 0-.2 0-.3 0-.3.3-.3.5 0 .5 1.3 2.6 1.8 2.8.4.2.4 0 .5-.4-.5-.9-.8-2-1.6-2.8zm27.6 19.8c-.1.2 0 .3.2.5.6.6 1.3 1.3 2 2 .2.2.4.5.7.2.3-.3.2-.6-.1-.9-.7-.6-1.5-1.3-2.3-1.9-.1-.1-.2-.1-.3-.1-.1 0-.2.1-.2.2zm-18.1 10.6c-.2-2.2-.4-4.3-.7-6.5-.1-.8-.2-1.9-1.1-2.2-1.1-.3-1.5.7-2 1.4-2.2 2.8-3.6 6.1-5.1 9.3-.6 1.4-1.1 2.8-1.6 4.3-.1.3-.2.7.2.9.4.2.6-.2.8-.5.5-1 1.1-2 1.7-3 .9-1.7 1.3-1.8 3.2-1.2 2.4.7 2.4.7 2.5 3.7-.3 1.5.3 3.3.4 5.1 0 .3.1.6.5.7.4 0 .4-.3.5-.6.1-.2.1-.3.2-.5.8-3.6.7-7.2.5-10.9zm-4.2 1c-.1-.1-.3-.1-.4-.2-.4-.2-1.1.1-1.2-.3-.1-.4.3-.9.5-1.3.7-1.1 1.4-2.3 2.1-3.4.1-.2.1-.5.4-.4.3.1 0 .3.1.5.3 1 .3 2.1.3 3.4v.3c0 1.9.1 1.9-1.8 1.4zm1-27.9c-.2 2.1.2 4.3.5 6.5.2 1.5.7 3 1.4 4.3.4.7.9 1.1 1.8.9.8-.2 1.6-.6 1.8-1.4.6-2.6 1.1-5.3 1-8-.2-1.7-.3-3.4-.3-5.1 0-.3-.2-.7.3-.8.5-.2.7.2.8.6.6 1.4.7 3 .9 4.6.2 1.5.3 3.1.4 4.6.1 2.2-.3 4.4-1.4 6.3-1.3 2.3-2.9 2.4-5.7 1.3-1.6-.7-2.2-2.2-2.5-3.8-.5-2.5-.7-5.1-.7-7.6.1-2 .4-3.9.7-5.8 0-.4.2-1 .6-.9.5 0 .4.6.4 1 0 1 0 2.1 0 3.3zm-5.9 3.9c-2.1.4-4 .1-5.9.2-.9.1-1.7.1-2.6.1-.2 0-.5 0-.6-.3 0-.4.3-.5.5-.5 1-.2 1.9-.5 2.9-.6 2.5-.2 4.9-.3 7.3-.4.5 0 .9.1 1.2.5.2.5 0 .9-.3 1.2-1.6 1.8-3 3.7-4.7 5.4-1.1 1.3-2.2 2.6-3.3 3.9-.1.1-.1.2-.1.3-.1 0-.1.1-.1.2.1.2.3.1.5.1.9.1 1.8-.4 2.8-.4 2-.1 3.9-.6 5.9-.6.5 0 .9.3.9.7.1.4-.3.6-.7.7-3.2.8-6.3 1.6-9.6 1.8-.8 0-1.5.3-2.2.3-1.3 0-1.8-.8-1.3-1.9 1.1-2.2 2.9-3.9 4.6-5.7 1.5-1.6 3.1-3.2 4.8-5zm-5.6 22.4c0 3.7.5 7.4.3 11.1 0 .4.2.9-.3 1.1-.6.1-.7-.5-.8-.8-1-2-1.2-4.3-1.4-6.4-.3-2.5-.3-5-.5-7.5 0-1.4-.1-1.4-1.5-1.5-.9-.1-1.7 0-2.5-.4-.4-.1-.9-.2-.8-.8.1-.5.6-.6 1-.7 1.6 0 3.2-.1 4.9-.1 1.9-.1 3.9-.1 5.9-.1.7 0 1.3.2 1.5 1 .1.9-.3 1.4-1.5 1.5-1.2 0-2.4 0-3.6 0-.6 0-.8.1-.8.7.1 1 .1 1.9.1 2.9zm27.6-13.5c.1-1-.3-1.8-1.1-2.5-.6-.5-1-1.1-1.6-1.6-2.5-2.4-.3-7.4 2.4-8.3 1.4-.3 3.3.6 3.7 1.9.1.3.2.6-.1.8-.2.1-.4 0-.6-.2-.3-.3-.6-.5-1-.6-.4-.2-.8-.2-1.2-.2-.3 0-.6.1-.9.2-.3.2-.6.4-.8.7-.3.2-.4.5-.5.9-.1.3-.1.6-.1 1 .2 1.3.9 2.5 1.9 3.4 1.4 1.1 2.4 2.4 2.4 4.4.1 2.6-1.2 4.1-3.1 5.3-2 1.3-4 1.6-6.1.1-.8-.6-1.4-1.3-1.5-2.4 0-.3-.1-.6.3-.8.3-.1.5.1.6.4.4.4.7.9 1.2 1.2 2.8 1.5 6.1-.5 6.1-3.7zm-10.1 15.2c-.2-1.5.3-3.1.1-4.7-.1-.7 0-1.5.7-1.8.8-.3 1.3.2 1.8.8 1 1.4 2.5 2.6 3.7 3.8.2.2.4.5.7.4.3-.1.2-.4.2-.7 0-1.4.1-2.8.2-4.2 0-.6.1-1.3.8-1.3.7-.1.9.6 1 1.1.3 2 0 4.1-.1 6.1 0 .6-.1 1.1.1 1.7.2.6-.1 1-.6 1.3-.5.4-1.1.2-1.5-.2-.8-.9-1.6-1.8-2.4-2.6-.7-.8-1.4-1.5-2.1-2.2 0 0-.1-.1-.2-.1 0 0-.1 0-.2 0-.2.1-.2.3-.2.5-.1 2.1-.2 4.1-.3 6.1-.1 1-.1 1.9-.4 2.8-.1.2-.2.4-.5.5-.3 0-.4-.3-.5-.6-.1-.2-.1-.4-.1-.6.1-2-.4-3.9-.2-6.1zm18.5-1.5v0c0 0-.1-.1-.1-.2-.2-3.2-2.2-5.2-4.8-6.7-.7-.5-1.2-.2-1.3.7-.1 1.6-.1 3.1-.3 4.6-.3 2.9-.7 5.8-1 8.7-.1 1.1.7 1.7 1.6 1.3.8-.4 1.7-.7 2.3-1.3 1.1-.9 1.9-1.9 2.5-3.2.6-1.2 1-2.5 1-3.9l.1 0c0 0 0 0 0 0zm-5.2 5.5c0-1.7.3-3.4.3-5.2-.1-1.7 0-3.4 0-5.4 1.7 1.1 2.4 2.7 2.6 4.4.3 2.6-.9 4.6-2.9 6.2z" fill="currentColor"/>
    </g>
    <rect width="64" height="64" fill="none"/>
  </symbol>
  
  <symbol id="node">
    <path d="m55.1 17.2-20.2-11.7c-1.3-.7-3-.7-4.2 0l-20.5 11.7c-1.3.7-2.2 2.1-2.2 3.7v23.2c0 1.5 1 2.9 2.3 3.7l5.4 3c2.5 1.3 3.4 1.3 4.6 1.3 3.8 0 6-2.3 6-6.3v-23c0-.3-.2-.8-.5-.8h-2.5c-.4 0-1.1.5-1.1.8v23c0 1.8-1.6 3.5-4.6 2l-5.6-3.1c-.2-.1-.3-.4-.3-.6v-23.2c0-.3.2-.5.4-.6l20.4-11.6c.1-.1.4-.1.6 0l20.1 11.6c.2.1.1.3.1.6v23.2c0 .2.1.5-.1.6l-20.2 11.6c-.1.1-.3.1-.5 0l-5.2-3.1c-.2-.1-.4-.1-.5 0-1.4.8-1.7.9-3.1 1.4-.3.1-.8.3.2.9l6.8 3.9c.6.4 1.4.6 2.1.6.8 0 1.5-.2 2.2-.6l20.1-11.6c1.3-.8 1.9-2.2 1.9-3.7v-23.2c0-1.6-.6-3-1.9-3.7zm-16 23.2c-5.4 0-6.6-1.4-6.9-4.1-.1-.3-.3-.6-.6-.6h-2.7c-.3 0-.5.4-.5.7 0 3.4 1.8 7.5 10.7 7.5 6.4 0 10.1-2.5 10.1-6.9 0-4.3-2.9-5.5-9.2-6.3-6.3-.8-6.9-1.2-6.9-2.7 0-1.2.5-2.8 5.2-2.8 4.2 0 5.7.9 6.3 3.7.1.2.3.4.6.4h2.6c.2 0 .3 0 .5-.2.1-.1.1-.2.1-.4-.4-4.8-3.6-7.1-10.1-7.1-5.8 0-9.3 2.5-9.3 6.5 0 4.4 3.5 5.7 9 6.2 6.7.7 7.2 1.6 7.2 2.9 0 2.3-1.8 3.2-6.1 3.2z" fill="currentColor"/>
    <rect width="64" height="64" fill="none"/>
  </symbol>

  <symbol id="next">
    <path d="M32 5C17.1078 5 5 17.1078 5 32C5 46.8922 17.1078 59 32 59C36.725 59 41.1547 57.7766 44.9938 55.6672L25.4188 28.3297V43.7703H22.55V22.6344H25.4188L46.7234 54.6125C54.1063 49.8031 59 41.4922 59 32C59 17.1078 46.8922 5 32 5ZM41.3234 40.6906L38.1594 35.9234V22.6344H41.3234V40.6906Z" fill="currentColor"/>
    <rect width="64" height="64" fill="none"/>
  </symbol>

  <symbol id="php">
    <path d="m19.3 27.4h-2.4l-1.3 6.7h2.1c1.4 0 2.5-.3 3.2-.8.7-.5 1.2-1.4 1.4-2.7.2-1.2.1-2-.3-2.5-.4-.5-1.3-.7-2.7-.7zm12.7-11.5c-16.8 0-30.5 7.2-30.5 16 0 8.9 13.7 16 30.5 16s30.5-7.2 30.5-16c0-8.9-13.7-16-30.5-16zm-8.3 18.9c-.7.6-1.5 1.1-2.3 1.4-.9.3-1.9.4-3.3.4h-3l-.8 4.3h-3.5l3.1-16.1h6.7c2 0 3.5.5 4.4 1.6.9 1.1 1.2 2.5.8 4.5-.1.8-.4 1.5-.8 2.2-.4.7-.8 1.2-1.4 1.8zm10.2 1.8 1.4-7.1c.2-.8.1-1.4-.2-1.7-.3-.3-.9-.4-1.7-.4h-2.8l-1.8 9.2h-3.5l3.1-16.1h3.5l-.8 4.3h3.1c1.9 0 3.3.3 4 1 .7.7 1 1.8.7 3.3l-1.5 7.5h-3.5zm19.3-5.8c-.1.8-.4 1.5-.8 2.2-.4.7-.8 1.2-1.4 1.8-.7.6-1.5 1.1-2.3 1.4-.9.3-1.9.4-3.3.4h-3l-.8 4.3h-3.5l3.1-16.1h6.7c2 0 3.5.5 4.4 1.6.9 1.1 1.2 2.5.899 4.398zm-6.6-3.5h-2.4l-1.3 6.7h2.1c1.4 0 2.5-.3 3.2-.8.7-.5 1.2-1.4 1.4-2.7.2-1.2.1-2-.3-2.5-.4-.5-1.3-.7-2.7-.7l0 0z" fill="currentColor"/>
    <rect width="64" height="64" fill="none"/>
  </symbol>

  <symbol id="wordpress">
    <g>
      <path d="M8.05099 31.4993C8.05099 41.1768 13.6748 49.54 21.8299 53.5032L10.1677 21.5492C8.81114 24.5899 8.05099 27.9548 8.05099 31.4993Z" fill="currentColor"/>
      <path d="M49.0038 30.2655C49.0038 27.2439 47.9185 25.1514 46.9876 23.5227C45.7483 21.5087 44.5867 19.8032 44.5867 17.7893C44.5867 15.5418 46.2912 13.4497 48.6921 13.4497C48.8005 13.4497 48.9033 13.4632 49.0089 13.4693C44.6593 9.48422 38.8642 7.05113 32.4993 7.05113C23.9582 7.05113 16.4437 11.4335 12.0722 18.0712C12.6458 18.0884 13.1864 18.1005 13.6455 18.1005C16.2028 18.1005 20.1612 17.7902 20.1612 17.7902C21.4791 17.7125 21.6345 19.6483 20.3179 19.8042C20.3179 19.8042 18.9935 19.96 17.5197 20.0372L26.4228 46.5198L31.7731 30.473L27.964 20.0363C26.6475 19.9591 25.4003 19.8032 25.4003 19.8032C24.0828 19.726 24.2373 17.7116 25.5547 17.7893C25.5547 17.7893 29.5922 18.0996 31.9946 18.0996C34.5513 18.0996 38.5102 17.7893 38.5102 17.7893C39.829 17.7116 39.984 19.6474 38.667 19.8032C38.667 19.8032 37.3397 19.9591 35.8688 20.0363L44.7039 46.3184L47.1425 38.1691C48.1995 34.7875 49.0038 32.3586 49.0038 30.2655Z" fill="currentColor"/>
      <path d="M32.9282 33.6379L25.5929 54.9538C27.7831 55.5976 30.0993 55.9498 32.4993 55.9498C35.3463 55.9498 38.0766 55.4576 40.618 54.5639C40.5524 54.4592 40.4929 54.3481 40.444 54.2271L32.9282 33.6379Z" fill="currentColor"/>
      <path d="M53.9517 19.7693C54.0568 20.5481 54.1164 21.3841 54.1164 22.2833C54.1164 24.7643 53.653 27.5533 52.2574 31.0406L44.7895 52.6328C52.0579 48.3942 56.9467 40.5194 56.9467 31.4998C56.9472 27.2491 55.8614 23.2519 53.9517 19.7693Z" fill="currentColor"/>
      <path d="M32.4993 3C16.7852 3 4 15.7847 4 31.4993C4 47.2158 16.7852 60 32.4993 60C48.213 60 61 47.2158 61 31.4993C60.9995 15.7847 48.213 3 32.4993 3ZM32.4993 58.6937C17.5058 58.6937 5.30676 46.4942 5.30676 31.4993C5.30676 16.5053 17.5053 4.3068 32.4993 4.3068C47.4924 4.3068 59.6905 16.5053 59.6905 31.4993C59.6905 46.4942 47.4924 58.6937 32.4993 58.6937Z" fill="currentColor"/>
    </g>
    <rect width="64" height="64" fill="none"/>
  </symbol>

  <symbol id="mysql">
    <path d="m55.44 46.94c-3.03-.07-5.38.23-7.35 1.06-.57.23-1.48.23-1.55.95.3.3.34.8.61 1.21.46.76 1.25 1.78 1.97 2.31.8.6 1.59 1.21 2.42 1.74 1.48.91 3.14 1.44 4.58 2.35.83.53 1.67 1.21 2.5 1.78.42.3.68.79 1.21.98v-.11c-.27-.34-.34-.83-.61-1.21-.38-.38-.76-.72-1.14-1.1-1.1-1.48-2.46-2.77-3.94-3.83-1.21-.83-3.86-1.97-4.35-3.37 0 0-.04-.04-.08-.08.83-.07 1.82-.38 2.61-.61 1.29-.34 2.46-.27 3.79-.61.61-.15 1.21-.34 1.82-.53v-.34c-.68-.68-1.17-1.59-1.89-2.23-1.93-1.67-4.05-3.29-6.25-4.66-1.17-.76-2.69-1.25-3.94-1.89-.45-.23-1.21-.34-1.48-.72-.68-.83-1.06-1.93-1.55-2.92-1.1-2.08-2.16-4.39-3.1-6.59-.68-1.48-1.1-2.95-1.93-4.32-3.9-6.44-8.14-10.34-14.65-14.16-1.4-.8-3.07-1.14-4.84-1.55-.95-.04-1.89-.11-2.84-.15-.6-.27-1.21-.98-1.74-1.32-2.15-1.36-7.72-4.32-9.31-.42-1.02 2.46 1.51 4.88 2.38 6.13.65.87 1.48 1.85 1.93 2.84.27.64.34 1.32.61 2.01.61 1.67 1.17 3.52 1.97 5.07.42.79.87 1.63 1.4 2.35.3.42.83.61.95 1.29-.53.76-.57 1.89-.87 2.84-1.36 4.28-.83 9.58 1.1 12.72.61.94 2.04 3.03 3.98 2.23 1.7-.68 1.32-2.84 1.82-4.73.11-.46.04-.76.27-1.06 0 .04 0 .08 0 .08.53 1.06 1.06 2.08 1.55 3.14 1.17 1.85 3.22 3.79 4.92 5.07.91.68 1.63 1.85 2.76 2.27v-.11h-.07c-.23-.34-.57-.49-.87-.76-.68-.68-1.44-1.51-1.97-2.27-1.59-2.12-2.99-4.47-4.24-6.89-.61-1.17-1.14-2.46-1.63-3.63-.23-.45-.23-1.14-.61-1.36-.57.83-1.4 1.55-1.82 2.58-.72 1.63-.8 3.63-1.06 5.72-.15.04-.07 0-.15.07-1.21-.3-1.63-1.55-2.08-2.61-1.14-2.69-1.33-7-.34-10.11.27-.8 1.4-3.29.95-4.05-.23-.72-.99-1.14-1.4-1.71-.49-.72-1.02-1.63-1.36-2.42-.91-2.12-1.36-4.47-2.35-6.59-.46-.98-1.25-2.01-1.89-2.92-.72-1.02-1.51-1.74-2.08-2.95-.19-.42-.45-1.1-.15-1.55.07-.3.23-.42.53-.49.49-.41 1.89.12 2.38.34 1.4.57 2.57 1.1 3.75 1.89.53.38 1.1 1.1 1.78 1.29h.8c1.21.27 2.57.08 3.71.42 2.01.65 3.82 1.59 5.45 2.61 4.96 3.14 9.05 7.61 11.81 12.95.45.87.65 1.67 1.06 2.58.8 1.85 1.78 3.75 2.57 5.57.8 1.78 1.55 3.6 2.69 5.07.57.79 2.84 1.21 3.86 1.63.76.34 1.93.64 2.61 1.06 1.29.8 2.57 1.71 3.79 2.58.6.45 2.5 1.4 2.61 2.16v-0l0 0zm-38.62-32.9c-.65 0-1.1.08-1.55.19 0 0 0 .04 0 .07h.07c.3.61.83 1.02 1.21 1.55.3.6.57 1.21.87 1.82.04-.04.08-.07.08-.07.53-.38.79-.99.79-1.89-.23-.27-.27-.53-.45-.8-.23-.38-.72-.57-1.02-.87l0 0 0 0z" fill="currentColor"/>
    <rect fill="none" width="64" height="64"/>
  </symbol>

  <symbol id="git">
    <path d="M58.944 29.5054L34.4938 5.05609C33.0866 3.64797 30.8028 3.64797 29.3939 5.05609L24.3167 10.1334L30.7573 16.5741C32.254 16.0684 33.9703 16.4077 35.1634 17.6008C36.3622 18.8015 36.699 20.5325 36.181 22.034L42.3881 28.2414C43.8898 27.724 45.6225 28.0587 46.8219 29.2601C48.4982 30.9358 48.4982 33.6516 46.8219 35.3284C45.1452 37.0053 42.4294 37.0053 40.7518 35.3284C39.4909 34.0662 39.1794 32.2144 39.8178 30.661L34.0292 24.8724L34.0285 40.1057C34.4481 40.3132 34.8314 40.5873 35.1634 40.9173C36.8397 42.593 36.8397 45.309 35.1634 46.9871C33.4867 48.6632 30.7696 48.6632 29.0953 46.9871C27.419 45.309 27.419 42.5932 29.0953 40.9175C29.497 40.5156 29.9744 40.1973 30.4999 39.981V24.6057C29.9736 24.3909 29.4959 24.0724 29.0953 23.6692C27.8252 22.4009 27.5198 20.5373 28.1706 18.9778L21.8216 12.628L5.05656 29.3923C3.64781 30.8017 3.64781 33.0857 5.05656 34.494L29.5072 58.9437C30.9148 60.3521 33.1981 60.3521 34.6076 58.9437L58.9438 34.6076C60.3521 33.1988 60.3523 30.9135 58.944 29.5054Z" fill="currentColor"/>
    <rect width="64" height="64" fill="none"/>
  </symbol>

  <symbol id="github">
    <path d="m10.15 38.61c-.21-.21-.21-.41 0-.62.41-.41.92-.57 1.54-.47.62.1.98.21 1.08.31.72.31 1.52 1.01 2.39 2.1.87 1.09 1.57 1.84 2.08 2.26 2.47 2.07 4.98 2.23 7.55.47.21-.73.54-1.35 1-1.87.46-.52.9-.88 1.31-1.09.41-.21 1.13-.52 2.16-.93-3.39-.31-6.14-.91-8.25-1.79-2.11-.88-3.78-2-5.01-3.35-1.64-1.87-2.65-4.31-3.01-7.31-.36-3.01-.13-5.76.69-8.25.62-1.56 1.49-2.96 2.62-4.2-.82-2.59-.67-5.55.46-8.87 3.29.21 6.27 1.35 8.94 3.42 5.14-1.35 10.48-1.4 16.03-.16.72-.52 1.82-1.17 3.31-1.95 1.49-.78 3.36-1.22 5.63-1.32.41 1.14.69 2.49.85 4.05.15 1.56.08 3.01-.23 4.36 2.36 2.49 3.6 5.81 3.7 9.96 0 3.32-.56 6.07-1.7 8.25-1.13 2.18-3.13 3.99-6.01 5.45-1.95.93-4.52 1.5-7.71 1.71 1.44.73 2.49 1.48 3.16 2.26.67.78 1.1 2 1.31 3.66v4.9l.15 4.75c.31.52.67.96 1.08 1.32.41.36.77.62 1.08.78.31.16.41.39.31.7-.1.31-.51.47-1.23.47-1.75 0-3.13-.62-4.16-1.87-.31-.52-.46-1.14-.46-1.87v-7.47c0-.83-.21-1.43-.62-1.79-.41-.36-.82-.6-1.23-.7v9.8c0 1.76.21 2.9.62 3.42.41.52.67 1.04.77 1.56.1.1.03.18-.23.23-.26.05-.69-.03-1.31-.23-1.34-.31-2.26-1.01-2.77-2.1-.51-1.09-.77-2.26-.77-3.5v-9.65h-2v9.65c0 1.24-.26 2.44-.77 3.58-.72 1.45-2.05 2.23-4.01 2.33-.31-.1-.46-.21-.46-.31.1-.1.41-.62.92-1.56.1-.21.23-.62.39-1.24.15-.62.23-1.35.23-2.18v-9.8c-.41.1-.8.34-1.16.7-.36.36-.54.96-.54 1.79v7.47c0 .73-.15 1.35-.46 1.87-.92 1.24-2.31 1.87-4.16 1.87-.72 0-1.13-.16-1.23-.47-.1-.21-.08-.39.08-.54.15-.16.39-.34.69-.54.31-.21.51-.36.62-.47.41-.31.72-.73.92-1.25.31-.41.39-1.5.23-3.27-.15-1.76-.18-2.9-.08-3.42-2.67.93-5.39.47-8.17-1.4-.82-.83-1.64-2.02-2.47-3.58-.62-1.14-1.85-2.49-3.7-4.05z" fill="currentColor"/>
    <rect width="64" height="64" fill="none"/>
  </symbol>

  <symbol id="markdown">
    <g>
      <path d="M7.91354 14.0005C5.2129 14.0005 3 16.2098 3 18.849V45.1514C3 47.7907 5.2129 50 7.91308 50H56.0869C58.7871 50 61 47.7907 61 45.1514V18.8495C61 16.2103 58.7866 14.0009 56.0869 14.0009H9.27775L9.27682 14L7.91354 14.0005ZM7.91031 18.3324H56.0869C56.3761 18.3324 56.5848 18.5245 56.5848 18.8499V45.1514C56.5848 45.4769 56.3752 45.6689 56.0869 45.6689H7.91308C7.62478 45.6689 7.41516 45.4769 7.41516 45.1514V18.849C7.41516 18.5245 7.62386 18.3338 7.91031 18.3324Z" fill="currentColor"/>
      <path d="M11.9724 41.1245V22.876H17.3862L22.799 29.5852L28.21 22.876H33.6224V41.1245H28.21V30.6584L22.7986 37.3677L17.3852 30.6584V41.1245H11.9724ZM45.8017 41.1245L37.6826 32.2685H43.0955V22.876H48.5088V32.2681H53.9221L45.8017 41.1245Z" fill="currentColor"/>
    </g>
    <rect width="64" height="64" fill="none"/>
  </symbol>

  <symbol id="npm">
    <g clip-path="url(#clip0_154_316)">
      <path d="M29.3108 33.0941H32.5V26.6039H29.3108V33.0941Z" fill="currentColor"/>
      <path fill-rule="evenodd" clip-rule="evenodd" d="M3 39.698V20H62V39.698H32.5V43H19.4015V39.698H3ZM6.30307 23.302H19.4015V36.3961H16.0985V26.6039H12.7954V36.3961H6.30307V23.302ZM22.7046 39.698V23.302H35.8031V36.3961H29.3108V39.698H22.7046ZM39.1062 23.302H58.8108V36.3961H55.5077V26.6039H52.2046V36.3961H48.9015V26.6039H45.5985V36.3961H39.1062V23.302Z" fill="currentColor"/>
    </g>
    <rect width="64" height="64" fill="none"/>
  </symbol>

  <symbol id="pnpm">
    <g>
      <path d="M58 21.9375H42.0635V6H58V21.9375Z" fill="currentColor"/>
      <path d="M40.4667 21.9375H24.5302V6H40.4667V21.9375Z" fill="currentColor"/>
      <path d="M22.9365 21.9375H7V6H22.9365V21.9375Z" fill="currentColor"/>
      <path d="M58 39.4688H42.0635V23.5313H58V39.4688Z" fill="currentColor"/>
      <path d="M40.4667 39.4688H24.5302V23.5313H40.4667V39.4688Z" fill="currentColor"/>
      <path d="M40.4667 57H24.5302V41.0625H40.4667V57Z" fill="currentColor"/>
      <path d="M58 57H42.0635V41.0625H58V57Z" fill="currentColor"/>
      <path d="M22.9365 57H7V41.0625H22.9365V57Z" fill="currentColor"/>
    </g>
    <rect width="64" height="64" fill="none"/>
  </symbol>

  <symbol id="vite">
    <g>
      <path d="M22.5415 13.8008L6.62438 10.9592C5.47359 10.7539 4.60538 11.9825 5.18444 12.9969L31.0538 58.3053C31.5856 59.236 32.9309 59.2304 33.4548 58.2953L58.8213 12.9926C59.3903 11.9763 58.5177 10.757 57.3707 10.9657L44.8387 13.2471L43.8797 16.5675L47.1963 15.9282C49.3669 15.5103 51.0758 17.7604 50.085 19.7352L34.7399 50.3207L34.4041 50.839C32.8022 53.3114 28.9581 51.7408 29.5554 48.8539L31.5845 39.0446L30.4296 39.3951L30.4292 39.3953C28.4965 39.9813 26.6386 38.2911 27.0428 36.3148L27.043 36.3142L28.1949 30.6803L24.9198 31.435C23.1846 31.8351 21.5548 30.4565 21.6592 28.6841L22.5415 13.8008Z" fill="currentColor"/>
      <path d="M44.1146 5.01331L25.3427 8.68692C25.1927 8.71624 25.0567 8.79453 24.9561 8.90948C24.8555 9.02444 24.796 9.16953 24.787 9.32193L23.6323 28.8C23.6053 29.2588 24.0271 29.6149 24.4753 29.5116L29.7017 28.3071C30.1908 28.1943 30.6327 28.6246 30.5321 29.1156L28.9794 36.7097C28.8748 37.2206 29.3552 37.6578 29.855 37.5063L33.0831 36.5266C33.5836 36.3749 34.0644 36.8133 33.9586 37.3247L31.491 49.2533C31.3366 49.9994 32.3303 50.4062 32.7447 49.7665L33.0215 49.3393L48.3179 18.8508C48.574 18.3404 48.1326 17.7584 47.5709 17.8665L42.1914 18.9035C41.6857 19.0008 41.2556 18.5306 41.3982 18.0365L44.9095 5.87985C45.0523 5.3848 44.6207 4.91422 44.1146 5.01331Z" fill="currentColor"/>
    </g>
    <rect width="64" height="64" fill="none"/>
  </symbol>
  
  <symbol id="blender">
    <path d="M61.287,34.726c-0.347-2.432-1.188-4.738-2.507-6.855c-1.146-1.847-2.621-3.489-4.378-4.885l0.005-0.005L35.938,8.794  c-0.015-0.011-0.027-0.022-0.044-0.032c-0.613-0.471-1.444-0.729-2.34-0.729c-0.895,0-1.76,0.26-2.43,0.73  c-0.723,0.505-1.136,1.174-1.164,1.886c-0.027,0.665,0.291,1.305,0.895,1.803c1.188,0.937,2.375,1.897,3.564,2.856  c1.152,0.932,2.34,1.891,3.519,2.824l-22.621-0.015c-2.586,0-4.349,1.215-4.71,3.249c-0.162,0.892,0.12,1.872,0.75,2.622  c0.665,0.795,1.634,1.234,2.723,1.234h1.724c2.384,0,4.776-0.006,7.168-0.011l2.277-0.005L4.717,40.396l-0.082,0.061  c-1.147,0.878-1.897,2.112-2.061,3.38c-0.123,0.96,0.102,1.842,0.651,2.542c0.651,0.837,1.669,1.297,2.868,1.297  c1.177,0,2.378-0.442,3.382-1.256l11.086-9.075c-0.046,0.443-0.104,1.093-0.098,1.565c0.014,0.747,0.251,2.247,0.632,3.463  c0.786,2.5,2.107,4.788,3.927,6.797c1.896,2.091,4.204,3.75,6.861,4.927c2.808,1.242,5.829,1.871,8.973,1.871h0.031  c3.155-0.005,6.184-0.646,9.004-1.904c2.659-1.19,4.967-2.854,6.854-4.943c1.82-2.02,3.139-4.313,3.922-6.811  c0.389-1.237,0.635-2.515,0.739-3.808C61.507,37.253,61.463,35.984,61.287,34.726L61.287,34.726z M41.088,46.711  c-6.935,0-12.556-5.029-12.556-11.233c0-6.206,5.624-11.236,12.556-11.236c6.936,0,12.556,5.03,12.556,11.236  C53.646,41.682,48.023,46.711,41.088,46.711z M48.33,34.489c0.104,1.854-0.639,3.571-1.936,4.845  c-1.322,1.296-3.208,2.112-5.317,2.112c-2.107,0-3.993-0.816-5.315-2.112c-1.297-1.273-2.036-2.991-1.935-4.845  c0.099-1.797,0.978-3.385,2.299-4.51c1.3-1.105,3.046-1.779,4.951-1.779c1.907,0,3.653,0.675,4.953,1.779  C47.352,31.104,48.23,32.691,48.33,34.489L48.33,34.489z" fill="currentColor"/>
    <rect width="64" height="64" fill="none"/>
  </symbol>

  <symbol id="construct2">
    <g >
      <path d="M56.777 18.3924C57.1657 18.1732 57.2917 17.6829 57.056 17.3098C52.0086 9.32281 42.9685 4 32.6559 4C22.3526 4 13.3194 9.31329 8.26929 17.2886C8.12109 17.5227 7.97631 17.759 7.83504 17.9976L14.6062 21.8175C14.9768 22.0265 15.4488 21.9121 15.6771 21.5586C19.2291 16.0557 25.5057 12.4 32.6559 12.4C40.0799 12.4 46.5621 16.3409 50.0305 22.1984L56.777 18.3924ZM50.3245 21.0786C46.6196 15.3676 40.0916 11.5738 32.6559 11.5738C25.2204 11.5738 18.6922 15.3678 14.9874 21.0786L9.00186 17.7019C13.9067 9.97177 22.6668 4.82614 32.6559 4.82614C42.6452 4.82614 51.405 9.9717 56.31 17.7019L50.3245 21.0786ZM22.444 38.7148L16.4531 42.0943C19.8674 47.3151 25.8487 50.7737 32.6559 50.7737C39.4633 50.7737 45.4449 47.315 48.8587 42.0943L42.8681 38.7147C40.6584 41.9172 36.9094 44.0261 32.6559 44.0261C28.4025 44.0261 24.6539 41.9175 22.444 38.7148ZM50.0305 41.8014C49.8892 42.0401 49.7428 42.2756 49.5916 42.5078C46.0322 47.9737 39.7774 51.5999 32.6559 51.5999C25.5291 51.5999 19.2702 47.9681 15.712 42.4953C15.4692 42.1218 15.5936 41.6255 15.9857 41.4041L22.7277 37.6008C24.7097 40.9481 28.4137 43.1999 32.6559 43.1999C36.6319 43.1999 40.1351 41.222 42.191 38.2179C42.4243 37.8771 42.8866 37.7713 43.2501 37.9763L50.0305 41.8014Z" fill="currentColor"/>
      <path d="M32.6559 51.5999C25.5291 51.5999 19.2702 47.9681 15.712 42.4953C15.4697 42.1223 15.5941 41.6252 15.9857 41.4041L22.7277 37.6008C21.752 35.9532 21.1936 34.0403 21.1936 32C21.1936 25.844 26.2952 20.8 32.6559 20.8C36.6319 20.8 40.1351 22.778 42.191 25.7819C42.4239 26.1222 42.8872 26.2282 43.2501 26.0235L50.0305 22.1984C46.5621 16.3409 40.0799 12.4 32.6559 12.4C25.5057 12.4 19.2291 16.0557 15.6771 21.5586C15.4491 21.9118 14.9763 22.0263 14.6062 21.8175L7.83504 17.9976C5.39602 22.1166 4 26.8991 4 32C4 47.3899 16.754 60 32.6559 60C42.9685 60 52.0086 54.6772 57.056 46.6901C57.2916 46.3174 57.1651 45.8266 56.777 45.6075L50.0305 41.8014C46.5621 47.6591 40.0799 51.5999 32.6559 51.5999Z" fill="currentColor"/>
      <path d="M56.816 35.0114V28.9886L51.4779 32L56.816 35.0114ZM47.4979 30.6529L57.6121 24.9471C58.6709 24.3498 60 25.0996 60 26.2943V37.7056C60 38.9003 58.6709 39.6501 57.6121 39.0528L47.4979 33.3471C46.4409 32.7507 46.4409 31.2492 47.4979 30.6529Z" fill="currentColor"/>
    </g>
    <rect width="64" height="64" fill="none"/>
  </symbol>

  <symbol id="unity">
    <path d="M59 26.4485L53.2001 5L31.5408 10.7494L28.3366 16.3495L21.8457 16.3031L6 32.0046L21.8474 47.702L28.3476 47.6539L31.5561 53.254L53.2009 59L59 37.5532L55.7066 32.0004L59 26.4485ZM45.419 13.0326L35.9258 29.351H16.9192L28.8824 17.2514L45.419 13.0326ZM35.9258 34.6541L45.4291 50.9707L28.8713 46.7418L16.9073 34.6583H35.9139L35.9258 34.6541ZM40.5671 32.0046L50.0705 15.6863L54.6651 32.0046L50.0705 48.3188L40.5671 32.0046Z" fill="currentColor"/>
    <rect width="64" height="64" fill="none"/>
  </symbol>

  <symbol id="pack_windows_office">
    <path d="M33.3001 33.3012H57V57H33.3001V33.3012ZM7 33.3012H30.6999V57H7V33.3012ZM33.3001 7H57V30.6988H33.3001V7ZM7 7H30.6999V30.6988H7V7Z" fill="currentColor"/>
    <rect width="64" height="64" fill="none"/>
  </symbol>

  <symbol id="ai">
    <path d="m54.57 27.28c1.2-3.54.78-7.42-1.13-10.64-2.88-4.94-8.66-7.48-14.3-6.29-2.51-2.79-6.12-4.38-9.9-4.36-5.77-.01-10.89 3.65-12.67 9.07-3.71.75-6.91 3.04-8.78 6.28-2.9 4.93-2.24 11.14 1.63 15.36-1.2 3.54-.78 7.42 1.13 10.64 2.88 4.94 8.66 7.48 14.3 6.29 2.51 2.79 6.12 4.38 9.9 4.36 5.77.01 10.9-3.65 12.67-9.08 3.71-.75 6.91-3.04 8.78-6.28 2.89-4.93 2.23-11.13-1.64-15.36l-0 0zM34.76 54.6c-2.31 0-4.55-.79-6.32-2.26.08-.04.22-.12.31-.17l10.49-5.98c.54-.3.87-.86.86-1.47V30.12l4.44 2.53c.05.02.08.07.09.12v12.09c-.01 5.38-4.42 9.73-9.87 9.75zm-21.22-8.94c-1.16-1.97-1.57-4.29-1.18-6.53.08.05.21.13.31.18l10.49 5.98c.53.31 1.19.31 1.72 0l12.81-7.3v5.05c0 .05-.02.1-.06.13l-10.61 6.04c-4.72 2.68-10.76 1.09-13.49-3.57h-0zm-2.76-22.6c1.15-1.98 2.97-3.49 5.14-4.27 0 .09-0 .25-0 .36v11.96c-0 .61.33 1.17.86 1.47l12.81 7.3-4.44 2.53c-.04.03-.1.03-.15.01l-10.61-6.05c-4.72-2.69-6.33-8.65-3.61-13.31l0-0zm36.44 8.37-12.81-7.3 4.44-2.53c.04-.03.1-.03.15-.01l10.61 6.04c4.72 2.69 6.34 8.65 3.61 13.32-1.15 1.97-2.97 3.48-5.14 4.27V32.9c0-.61-.32-1.17-.86-1.47h-0zm4.41-6.56c-.08-.05-.21-.13-.31-.18l-10.49-5.98c-.53-.31-1.19-.31-1.72 0l-12.81 7.3v-5.05c-0-.05.02-.1.06-.13l10.61-6.04c4.72-2.69 10.77-1.09 13.49 3.57 1.15 1.97 1.57 4.28 1.18 6.52h0zm-27.75 9.01-4.44-2.53c-.05-.02-.08-.07-.09-.12V19.14c0-5.38 4.43-9.74 9.88-9.74 2.31 0 4.54.8 6.31 2.26-.08.04-.22.12-.31.17l-10.49 5.98c-.54.3-.87.86-.86 1.47l-.01 14.59v0zm2.41-5.13 5.71-3.25 5.71 3.25v6.5l-5.71 3.25-5.71-3.25v-6.5z" fill="currentColor"/>
    <rect width="64" height="64" fill="none"/>
  </symbol>
</svg>